<?xml version="1.0" encoding="UTF-8"?><svg id="Layer_2" xmlns="http://www.w3.org/2000/svg" width="214.04" height="101.91" viewBox="0 0 214.04 101.91"><rect y="3.41" width="214.04" height="98.5" fill="none"/><path d="M27.31,7.01c-.13,1.41-.22,2.77-.26,4.08-.05,1.31-.07,2.32-.07,3.02,0,.64.02,1.25.05,1.82.03.58.06,1.06.1,1.44h-1.1c-.32-2.33-.82-4.18-1.49-5.54-.67-1.36-1.54-2.32-2.62-2.88-1.07-.56-2.33-.84-3.77-.84h-1.97c-.93,0-1.63.08-2.11.24-.48.16-.8.48-.96.96-.16.48-.24,1.22-.24,2.21v24.96c0,.96.08,1.69.24,2.18.16.5.48.82.96.98.48.16,1.18.24,2.11.24h2.35c1.44,0,2.71-.31,3.82-.94,1.1-.62,2.05-1.69,2.83-3.19.78-1.5,1.38-3.54,1.8-6.1h1.1c-.1,1.02-.14,2.37-.14,4.03,0,.74.02,1.78.05,3.12.03,1.34.13,2.74.29,4.18-1.63-.06-3.47-.1-5.52-.12-2.05-.02-3.87-.02-5.47-.02h-3.07c-1.25,0-2.59,0-4.03.02-1.44.02-2.9.03-4.37.05-1.47.02-2.86.04-4.18.07v-.96c1.02-.06,1.79-.19,2.3-.38.51-.19.86-.58,1.03-1.15s.26-1.44.26-2.59V12.09c0-1.18-.09-2.06-.26-2.62s-.53-.94-1.06-1.15c-.53-.21-1.29-.33-2.28-.36v-.96c1.31.03,2.7.06,4.18.07,1.47.02,2.93.03,4.37.05,1.44.02,2.78.02,4.03.02h3.07c1.47,0,3.14,0,5.02-.02,1.87-.02,3.54-.06,5.02-.12ZM19.82,23.42v.96h-8.4v-.96h8.4ZM21.22,17.09c-.13,1.82-.18,3.22-.17,4.18.02.96.02,1.84.02,2.64s.02,1.68.05,2.64c.03.96.11,2.35.24,4.18h-1.1c-.16-1.12-.46-2.16-.89-3.12-.43-.96-1.05-1.74-1.85-2.33s-1.84-.89-3.12-.89v-.96c.96,0,1.78-.2,2.45-.6.67-.4,1.22-.93,1.66-1.58.43-.66.78-1.35,1.03-2.09.26-.74.45-1.42.58-2.06h1.1Z"/><path d="M41.38,3.41v33.12c0,1.34.23,2.26.7,2.74.46.48,1.26.72,2.38.72v1.01c-.61-.03-1.52-.07-2.74-.12-1.22-.05-2.45-.07-3.7-.07s-2.5.02-3.77.07c-1.26.05-2.22.09-2.86.12v-1.01c1.12,0,1.91-.24,2.38-.72.46-.48.7-1.39.7-2.74V9.17c0-1.44-.22-2.5-.65-3.19-.43-.69-1.24-1.03-2.42-1.03v-1.01c1.02.1,2.02.14,2.98.14,1.31,0,2.56-.06,3.74-.17,1.18-.11,2.27-.28,3.26-.5Z"/><path d="M56.5,15.65v20.88c0,1.34.23,2.26.7,2.74.46.48,1.26.72,2.38.72v1.01c-.61-.03-1.51-.07-2.71-.12s-2.42-.07-3.67-.07-2.51.02-3.79.07c-1.28.05-2.24.09-2.88.12v-1.01c1.12,0,1.91-.24,2.38-.72.46-.48.7-1.39.7-2.74v-15.12c0-1.44-.22-2.5-.65-3.19-.43-.69-1.24-1.03-2.42-1.03v-1.01c1.02.1,2.02.14,2.98.14,1.34,0,2.6-.06,3.77-.17,1.17-.11,2.25-.28,3.24-.5ZM52.75,3.79c1.34,0,2.41.33,3.19.98.78.66,1.18,1.56,1.18,2.71s-.39,2.06-1.18,2.71c-.78.66-1.85.98-3.19.98s-2.41-.33-3.19-.98c-.79-.66-1.18-1.56-1.18-2.71s.39-2.06,1.18-2.71c.78-.66,1.85-.98,3.19-.98Z"/><path d="M79.49,15.5c1.34,0,2.44.17,3.29.5.85.34,1.51.79,1.99,1.37.51.61.89,1.39,1.13,2.35s.36,2.26.36,3.89v12.91c0,1.34.23,2.26.7,2.74.46.48,1.26.72,2.38.72v1.01c-.61-.03-1.52-.07-2.74-.12-1.22-.05-2.42-.07-3.6-.07s-2.41.02-3.58.07-2.06.09-2.66.12v-1.01c.96,0,1.63-.24,2.02-.72.38-.48.58-1.39.58-2.74v-14.93c0-.8-.08-1.5-.24-2.09-.16-.59-.45-1.06-.86-1.39s-1.04-.5-1.87-.5-1.66.24-2.38.72c-.72.48-1.3,1.14-1.73,1.99-.43.85-.65,1.8-.65,2.86v13.34c0,1.34.2,2.26.6,2.74.4.48,1.06.72,1.99.72v1.01c-.58-.03-1.42-.07-2.52-.12-1.1-.05-2.25-.07-3.43-.07s-2.46.02-3.74.07c-1.28.05-2.24.09-2.88.12v-1.01c1.12,0,1.91-.24,2.38-.72.46-.48.7-1.39.7-2.74v-15.12c0-1.44-.22-2.5-.65-3.19-.43-.69-1.24-1.03-2.42-1.03v-1.01c1.02.1,2.02.14,2.98.14,1.34,0,2.6-.06,3.77-.17,1.17-.11,2.25-.28,3.24-.5v4.32c.8-1.63,1.89-2.78,3.26-3.46,1.38-.67,2.91-1.01,4.61-1.01Z"/><path d="M97.73,41.33c-1.44,0-2.64-.27-3.6-.82-.96-.54-1.66-1.27-2.11-2.18-.45-.91-.67-1.91-.67-3,0-1.38.31-2.5.94-3.36.62-.86,1.43-1.57,2.42-2.11.99-.54,2.04-.99,3.14-1.34,1.1-.35,2.16-.7,3.17-1.03,1.01-.34,1.82-.74,2.45-1.2s.94-1.06.94-1.8v-3.74c0-.83-.14-1.58-.41-2.23-.27-.66-.69-1.16-1.25-1.51-.56-.35-1.29-.53-2.18-.53-.64,0-1.28.09-1.92.26-.64.18-1.17.47-1.58.89.9.32,1.59.81,2.09,1.46.5.66.74,1.4.74,2.23,0,1.09-.38,1.95-1.13,2.59-.75.64-1.64.96-2.66.96-1.15,0-2.02-.36-2.62-1.08-.59-.72-.89-1.59-.89-2.62,0-.93.23-1.7.7-2.3.46-.61,1.11-1.18,1.94-1.73.9-.51,1.98-.91,3.24-1.2,1.26-.29,2.63-.43,4.1-.43s2.8.15,3.98.46c1.18.3,2.18.86,2.98,1.66.74.74,1.22,1.64,1.44,2.71.22,1.07.34,2.42.34,4.06v13.06c0,.8.08,1.35.24,1.66.16.3.43.46.82.46.29,0,.57-.08.84-.24.27-.16.57-.35.89-.58l.48.82c-.67.58-1.45,1.02-2.33,1.32-.88.3-1.86.46-2.95.46-1.18,0-2.13-.17-2.83-.5s-1.21-.79-1.51-1.37c-.3-.58-.46-1.25-.46-2.02-.77,1.22-1.7,2.17-2.78,2.86-1.09.69-2.42,1.03-3.98,1.03ZM101.13,38.25c.64,0,1.22-.15,1.75-.46.53-.3,1.03-.81,1.51-1.51v-9.84c-.29.48-.69.91-1.2,1.3-.51.38-1.06.78-1.63,1.18-.58.4-1.13.84-1.66,1.32-.53.48-.95,1.07-1.27,1.78-.32.7-.48,1.55-.48,2.54,0,1.25.27,2.18.82,2.78.54.61,1.26.91,2.16.91Z"/><path d="M27.31,55.01c-.13,1.41-.22,2.77-.26,4.08-.05,1.31-.07,2.32-.07,3.02,0,.64.02,1.25.05,1.82.03.58.06,1.06.1,1.44h-1.1c-.32-2.33-.82-4.18-1.49-5.54-.67-1.36-1.54-2.32-2.62-2.88-1.07-.56-2.33-.84-3.77-.84h-1.97c-.93,0-1.63.08-2.11.24-.48.16-.8.48-.96.96-.16.48-.24,1.22-.24,2.21v24.96c0,.96.08,1.69.24,2.18.16.5.48.82.96.98.48.16,1.18.24,2.11.24h2.35c1.44,0,2.71-.31,3.82-.94,1.1-.62,2.05-1.69,2.83-3.19.78-1.5,1.38-3.54,1.8-6.1h1.1c-.1,1.02-.14,2.37-.14,4.03,0,.74.02,1.78.05,3.12.03,1.34.13,2.74.29,4.18-1.63-.06-3.47-.1-5.52-.12-2.05-.02-3.87-.02-5.47-.02h-3.07c-1.25,0-2.59,0-4.03.02-1.44.02-2.9.03-4.37.05-1.47.02-2.86.04-4.18.07v-.96c1.02-.06,1.79-.19,2.3-.38.51-.19.86-.58,1.03-1.15s.26-1.44.26-2.59v-23.81c0-1.18-.09-2.06-.26-2.62s-.53-.94-1.06-1.15c-.53-.21-1.29-.33-2.28-.36v-.96c1.31.03,2.7.06,4.18.07,1.47.02,2.93.03,4.37.05,1.44.02,2.78.02,4.03.02h3.07c1.47,0,3.14,0,5.02-.02,1.87-.02,3.54-.06,5.02-.12ZM19.82,71.42v.96h-8.4v-.96h8.4ZM21.22,65.09c-.13,1.82-.18,3.22-.17,4.18.02.96.02,1.84.02,2.64s.02,1.68.05,2.64c.03.96.11,2.35.24,4.18h-1.1c-.16-1.12-.46-2.16-.89-3.12-.43-.96-1.05-1.74-1.85-2.33s-1.84-.89-3.12-.89v-.96c.96,0,1.78-.2,2.45-.6.67-.4,1.22-.93,1.66-1.58.43-.66.78-1.35,1.03-2.09.26-.74.45-1.42.58-2.06h1.1Z"/><path d="M41.38,51.41v33.12c0,1.34.23,2.26.7,2.74.46.48,1.26.72,2.38.72v1.01c-.61-.03-1.52-.07-2.74-.12-1.22-.05-2.45-.07-3.7-.07s-2.5.02-3.77.07c-1.26.05-2.22.09-2.86.12v-1.01c1.12,0,1.91-.24,2.38-.72.46-.48.7-1.39.7-2.74v-27.36c0-1.44-.22-2.5-.65-3.19-.43-.69-1.24-1.03-2.42-1.03v-1.01c1.02.1,2.02.14,2.98.14,1.31,0,2.56-.06,3.74-.17,1.18-.11,2.27-.28,3.26-.5Z"/><path d="M56.3,51.41v33.12c0,1.34.23,2.26.7,2.74.46.48,1.26.72,2.38.72v1.01c-.61-.03-1.52-.07-2.74-.12-1.22-.05-2.45-.07-3.7-.07s-2.5.02-3.77.07c-1.26.05-2.22.09-2.86.12v-1.01c1.12,0,1.91-.24,2.38-.72.46-.48.7-1.39.7-2.74v-27.36c0-1.44-.22-2.5-.65-3.19-.43-.69-1.24-1.03-2.42-1.03v-1.01c1.02.1,2.02.14,2.98.14,1.31,0,2.56-.06,3.74-.17,1.18-.11,2.27-.28,3.26-.5Z"/><path d="M73.82,63.5c2.82,0,5.02.83,6.62,2.5,1.6,1.66,2.4,4.38,2.4,8.16h-15.79l-.1-.91h9.84c.03-1.57-.06-3.02-.29-4.34-.22-1.33-.58-2.39-1.06-3.19-.48-.8-1.12-1.2-1.92-1.2-1.12,0-2.07.71-2.86,2.11-.78,1.41-1.26,3.74-1.42,7.01l.14.29c-.03.38-.06.79-.07,1.2-.02.42-.02.85-.02,1.3,0,2.21.31,4,.94,5.38.62,1.38,1.42,2.38,2.38,3s1.94.94,2.93.94c.67,0,1.37-.1,2.09-.31.72-.21,1.45-.59,2.18-1.15.74-.56,1.42-1.35,2.06-2.38l.86.29c-.38,1.22-.99,2.4-1.82,3.55-.83,1.15-1.89,2.1-3.17,2.83-1.28.74-2.82,1.1-4.61,1.1-2.18,0-4.1-.46-5.76-1.39s-2.97-2.34-3.91-4.22c-.94-1.89-1.42-4.29-1.42-7.2s.5-5.46,1.51-7.44c1.01-1.98,2.4-3.46,4.18-4.44,1.78-.98,3.8-1.46,6.07-1.46Z"/><path d="M94.94,98.02c-1.98,0-3.75-.17-5.3-.5-1.55-.34-2.77-.85-3.65-1.54-.88-.69-1.32-1.53-1.32-2.52s.45-1.88,1.34-2.66c.9-.78,2.22-1.4,3.98-1.85l.43.77c-.61.48-1.05,1-1.32,1.56-.27.56-.41,1.14-.41,1.75,0,1.34.62,2.38,1.85,3.1,1.23.72,2.9,1.08,5.02,1.08,1.44,0,2.73-.19,3.86-.58,1.14-.38,2.03-.96,2.69-1.73.66-.77.98-1.71.98-2.83,0-.96-.35-1.77-1.06-2.42-.71-.66-2.11-.98-4.22-.98h-2.98c-1.31,0-2.46-.14-3.43-.43-.98-.29-1.74-.74-2.28-1.37-.54-.62-.82-1.42-.82-2.38,0-1.34.53-2.53,1.58-3.55,1.06-1.02,2.62-1.98,4.7-2.88l.48.38c-.61.38-1.18.79-1.7,1.22-.53.43-.79.98-.79,1.66,0,1.02.64,1.54,1.92,1.54h5.23c1.76,0,3.34.21,4.73.62,1.39.42,2.5,1.1,3.31,2.04.82.94,1.22,2.17,1.22,3.67s-.5,3.02-1.51,4.37c-1.01,1.34-2.55,2.42-4.63,3.24-2.08.82-4.72,1.22-7.92,1.22ZM95.42,78.77c-1.82,0-3.46-.27-4.9-.82-1.44-.54-2.58-1.38-3.41-2.5-.83-1.12-1.25-2.56-1.25-4.32s.42-3.21,1.25-4.34c.83-1.14,1.97-1.97,3.41-2.5,1.44-.53,3.07-.79,4.9-.79s3.46.26,4.9.79c1.44.53,2.58,1.36,3.41,2.5.83,1.14,1.25,2.58,1.25,4.34s-.42,3.2-1.25,4.32c-.83,1.12-1.97,1.95-3.41,2.5-1.44.54-3.07.82-4.9.82ZM95.42,77.9c.86,0,1.54-.49,2.02-1.46.48-.98.72-2.74.72-5.3s-.24-4.33-.72-5.3c-.48-.98-1.15-1.46-2.02-1.46s-1.5.49-1.99,1.46c-.5.98-.74,2.74-.74,5.3s.25,4.33.74,5.3c.5.98,1.16,1.46,1.99,1.46ZM102.91,67.63l-.96-.34c.48-1.25,1.26-2.29,2.33-3.12,1.07-.83,2.23-1.25,3.48-1.25,1.02,0,1.8.28,2.33.84.53.56.79,1.29.79,2.18,0,.96-.26,1.67-.77,2.14-.51.46-1.09.7-1.73.7-.54,0-1.05-.19-1.51-.58s-.73-.97-.79-1.75c-.06-.78.21-1.8.82-3.05l.34.29c-1.22.45-2.13.97-2.74,1.56-.61.59-1.14,1.38-1.58,2.38Z"/><path d="M118.8,89.33c-1.44,0-2.64-.27-3.6-.82-.96-.54-1.66-1.27-2.11-2.18-.45-.91-.67-1.91-.67-3,0-1.38.31-2.5.94-3.36.62-.86,1.43-1.57,2.42-2.11.99-.54,2.04-.99,3.14-1.34,1.1-.35,2.16-.7,3.17-1.03,1.01-.34,1.82-.74,2.45-1.2s.94-1.06.94-1.8v-3.74c0-.83-.14-1.58-.41-2.23-.27-.66-.69-1.16-1.25-1.51-.56-.35-1.29-.53-2.18-.53-.64,0-1.28.09-1.92.26-.64.18-1.17.47-1.58.89.9.32,1.59.81,2.09,1.46.5.66.74,1.4.74,2.23,0,1.09-.38,1.95-1.13,2.59-.75.64-1.64.96-2.66.96-1.15,0-2.02-.36-2.62-1.08-.59-.72-.89-1.59-.89-2.62,0-.93.23-1.7.7-2.3.46-.61,1.11-1.18,1.94-1.73.9-.51,1.98-.91,3.24-1.2,1.26-.29,2.63-.43,4.1-.43s2.8.15,3.98.46c1.18.3,2.18.86,2.98,1.66.74.74,1.22,1.64,1.44,2.71.22,1.07.34,2.42.34,4.06v13.06c0,.8.08,1.35.24,1.66.16.3.43.46.82.46.29,0,.57-.08.84-.24.27-.16.57-.35.89-.58l.48.82c-.67.58-1.45,1.02-2.33,1.32-.88.3-1.86.46-2.95.46-1.18,0-2.13-.17-2.83-.5s-1.21-.79-1.51-1.37c-.3-.58-.46-1.25-.46-2.02-.77,1.22-1.7,2.17-2.78,2.86-1.09.69-2.42,1.03-3.98,1.03ZM122.21,86.25c.64,0,1.22-.15,1.75-.46.53-.3,1.03-.81,1.51-1.51v-9.84c-.29.48-.69.91-1.2,1.3-.51.38-1.06.78-1.63,1.18-.58.4-1.13.84-1.66,1.32-.53.48-.95,1.07-1.27,1.78-.32.7-.48,1.55-.48,2.54,0,1.25.27,2.18.82,2.78.54.61,1.26.91,2.16.91Z"/><path d="M143.66,89.33c-1.44,0-2.64-.27-3.6-.82-.96-.54-1.66-1.27-2.11-2.18-.45-.91-.67-1.91-.67-3,0-1.38.31-2.5.94-3.36.62-.86,1.43-1.57,2.42-2.11.99-.54,2.04-.99,3.14-1.34,1.1-.35,2.16-.7,3.17-1.03,1.01-.34,1.82-.74,2.45-1.2s.94-1.06.94-1.8v-3.74c0-.83-.14-1.58-.41-2.23-.27-.66-.69-1.16-1.25-1.51-.56-.35-1.29-.53-2.18-.53-.64,0-1.28.09-1.92.26-.64.18-1.17.47-1.58.89.9.32,1.59.81,2.09,1.46.5.66.74,1.4.74,2.23,0,1.09-.38,1.95-1.13,2.59-.75.64-1.64.96-2.66.96-1.15,0-2.02-.36-2.62-1.08-.59-.72-.89-1.59-.89-2.62,0-.93.23-1.7.7-2.3.46-.61,1.11-1.18,1.94-1.73.9-.51,1.98-.91,3.24-1.2,1.26-.29,2.63-.43,4.1-.43s2.8.15,3.98.46c1.18.3,2.18.86,2.98,1.66.74.74,1.22,1.64,1.44,2.71.22,1.07.34,2.42.34,4.06v13.06c0,.8.08,1.35.24,1.66.16.3.43.46.82.46.29,0,.57-.08.84-.24.27-.16.57-.35.89-.58l.48.82c-.67.58-1.45,1.02-2.33,1.32-.88.3-1.86.46-2.95.46-1.18,0-2.13-.17-2.83-.5s-1.21-.79-1.51-1.37c-.3-.58-.46-1.25-.46-2.02-.77,1.22-1.7,2.17-2.78,2.86-1.09.69-2.42,1.03-3.98,1.03ZM147.07,86.25c.64,0,1.22-.15,1.75-.46.53-.3,1.03-.81,1.51-1.51v-9.84c-.29.48-.69.91-1.2,1.3-.51.38-1.06.78-1.63,1.18-.58.4-1.13.84-1.66,1.32-.53.48-.95,1.07-1.27,1.78-.32.7-.48,1.55-.48,2.54,0,1.25.27,2.18.82,2.78.54.61,1.26.91,2.16.91Z"/><path d="M178.41,63.5c1.02,0,1.86.22,2.5.65.64.43,1.11.98,1.42,1.66.3.67.46,1.38.46,2.11,0,1.18-.34,2.15-1.03,2.9-.69.75-1.59,1.13-2.71,1.13s-1.99-.28-2.62-.84c-.62-.56-.94-1.3-.94-2.23s.2-1.64.6-2.23c.4-.59.9-1.1,1.51-1.51-.45-.13-.9-.11-1.34.05-.61.1-1.18.34-1.73.74-.54.4-1.01.9-1.39,1.49-.38.59-.69,1.23-.91,1.92-.22.69-.34,1.35-.34,1.99v12.72c0,1.54.38,2.58,1.13,3.12.75.54,1.88.82,3.38.82v1.01c-.74-.03-1.81-.07-3.22-.12s-2.88-.07-4.42-.07c-1.28,0-2.58.02-3.89.07-1.31.05-2.3.09-2.98.12v-1.01c1.12,0,1.91-.24,2.38-.72.46-.48.7-1.39.7-2.74v-15.12c0-1.44-.22-2.5-.65-3.19-.43-.69-1.24-1.03-2.42-1.03v-1.01c1.02.1,2.02.14,2.98.14,1.34,0,2.6-.06,3.77-.17,1.17-.11,2.25-.28,3.24-.5v4.46c.38-.86.9-1.65,1.54-2.35.64-.7,1.38-1.25,2.21-1.66s1.76-.6,2.78-.6Z"/><path d="M195.69,63.5c1.41,0,2.65.23,3.72.7,1.07.46,1.91,1.24,2.52,2.33l-.58.53c-.42-.77-.97-1.32-1.66-1.66-.69-.34-1.42-.5-2.18-.5-1.63,0-2.93.95-3.89,2.86-.96,1.9-1.42,4.84-1.39,8.81,0,2.72.18,4.89.55,6.5.37,1.62.9,2.78,1.58,3.48.69.7,1.48,1.06,2.38,1.06,1.09,0,2.06-.43,2.93-1.3.86-.86,1.33-2.03,1.39-3.5l.24,1.68c-.48,1.7-1.26,2.98-2.33,3.86-1.07.88-2.47,1.32-4.2,1.32-1.89,0-3.58-.46-5.06-1.39-1.49-.93-2.65-2.36-3.48-4.3-.83-1.94-1.25-4.44-1.25-7.51,0-2.91.46-5.32,1.39-7.22.93-1.9,2.2-3.34,3.82-4.3,1.62-.96,3.45-1.44,5.5-1.44ZM207.93,51.41v32.3c0,1.44.22,2.5.67,3.19.45.69,1.25,1.03,2.4,1.03v1.01c-.99-.1-1.98-.14-2.98-.14-1.34,0-2.6.05-3.77.14s-2.25.27-3.24.53v-32.3c0-1.44-.22-2.5-.65-3.19s-1.24-1.03-2.42-1.03v-1.01c1.02.1,2.02.14,2.98.14,1.31,0,2.56-.06,3.74-.17,1.18-.11,2.27-.28,3.26-.5Z"/><ellipse cx="53.04" cy="7.41" rx="5" ry="4.5" fill="#ffbb4b"/></svg>