<?xml version="1.0" encoding="UTF-8"?><svg id="Layer_1" xmlns="http://www.w3.org/2000/svg" width="504.71" height="329" viewBox="0 0 504.71 329"><path d="M203.35,128.97c.21-.77,3.78-.54,6.08-.21,9.65,1.4,13.36,7.02,24.94,12.3,2.83,1.29,1.53.47,8.83,3.31,9.54,3.72,16.66,7.05,22.38,9.75,10.75,5.08,18.23,8.63,26.27,12.6,3.45,1.7,3.08,1.56,12.22,6.14,12.35,6.19,12.82,6.37,15.9,8,5.4,2.85,6.18,3.45,16.1,8.98,9.28,5.17,10.78,5.87,14.92,8.2,10.1,5.69,17.41,10.71,24.56,15.64,47.71,32.91,56.58,37.43,77.78,56.49,2.91,2.61,7.36,6.72,12.63,11.99,5.82,5.82,20.53,20.53,30.63,35.37,1.01,1.49,7.28,10.77,7.28,10.77h0s-.96.19-.98.2c-1.27.25-8.72-11.43-11.21-15.07-2.77-4.05-5.53-7.07-9.44-11.35-1.99-2.18-2.19-2.28-6.49-6.85-4.61-4.9-5.55-6.04-8.42-9.07-.31-.33-4.94-5.4-9.67-9.71-10.82-9.85-23.8-19.34-33.99-26.79-2.15-1.57-10.07-7.34-23.77-16.61-11.25-7.61-25.87-17.5-45.76-29.51,0,0-24.4-15.14-60.88-33.59-11.78-5.96-20.39-10.31-32.79-15.81-12.95-5.74-21.09-8.76-40.24-17.36-8.05-3.62-17.22-6.53-16.88-7.8Z" fill="#4b5a7e"/><path d="M203.35,128.97c.21-.77,3.78-.54,6.08-.21,9.65,1.4,13.36,7.02,24.94,12.3,2.83,1.29,1.53.47,8.83,3.31,9.54,3.72,16.66,7.05,22.38,9.75,17.16,7.99,39.93,19.36,54.39,26.74,5.04,2.72,25.94,14.5,31.03,17.19,10.1,5.69,17.41,10.71,24.56,15.64,56.48,39.18,58.49,37.67,90.41,68.48,5.82,5.82,20.53,20.53,30.63,35.37,1.01,1.49,7.28,10.77,7.28,10.77,0,0-.96.19-.98.2-1.27.25-8.72-11.43-11.21-15.07-2.77-4.05-5.53-7.07-9.44-11.35-3.02-3.17-12.02-12.76-14.9-15.92-.31-.33-4.94-5.4-9.67-9.71-23.94-20.49-28.59-23.03-57.76-43.4-34.62-23.76-81.3-52.38-139.43-78.9-12.95-5.74-21.09-8.76-40.24-17.36-8.05-3.62-17.22-6.53-16.88-7.81h0Z" fill="none" stroke="#4b5a7e" stroke-miterlimit="10"/><path d="M394.01,108.48c-3.28,14.46-8.98,30.84-2.61,45.16,2.58,5.73,8.27,9.69,9.75,16.1.89,3.18,1.16,6.52.84,9.79-.83,2.91-1.1,5.97-1.1,9.06.16,9.31,3.18,18.43,6.69,26.99,0,0-.93.38-.93.38-3.3-8.85-6.36-17.84-7.41-27.28-.36-2.83-.26-7.3.27-9.45.13-4.45-.53-8.92-2.23-13.04-1.85-4.23-5.08-7.76-6.84-12.12-5.05-11.72-3.6-25-.34-37,.83-3.02,1.78-6,2.95-8.9l.95.31h0Z" fill="#4b5a7e"/><path d="M401.8,99.31c-1.43,5.64-3.74,10.83-3.65,16.69-.02,5.84,1.84,11.58,1.79,17.45.16,2.92-.27,6-.4,8.87-.03,2.85.18,5.74,1.05,8.43,1.5,4.11,3.21,8.27,4.3,12.55,2.01,7.14,3.79,14.35,4.19,21.86.21,2.98-.03,6.1-.1,8.85,0,8.67,3.04,16.96,7.1,24.56,2.64,5.24,5.47,10.39,8.48,15.44,0,0-.86.51-.86.51-3.04-5.05-5.99-10.14-8.86-15.29-3.5-6.44-7.26-13.25-8.72-20.64-.78-4.46.24-8.97.36-13.41.43-8.69-1.38-17.47-4.14-25.72-1.33-4.16-3.78-8.17-4.33-12.64-.78-4.42.13-8.86-.18-13.28-.16-4.43-1.08-8.62-1.88-12.98-.68-4.53-.28-9.23.99-13.6.82-2.92,1.96-5.78,3.98-8.09,0,0,.89.45.89.45h0Z" fill="#4b5a7e"/><path d="M407.51,89.35c-1.38,6.93-1.99,14.01-2.13,21.07.02,7.02-.33,14.16.63,21.11.5,3.45,1.33,6.89,2.54,10.17,1.28,3.27,2.89,6.51,3.94,9.9,2.15,6.79,3.99,13.73,4.4,20.87,0,13.97-1.09,28.67,5.13,41.6,2.94,6.41,6.28,12.67,9.64,18.88,3.4,6.2,7,12.3,10.69,18.35l-.85.53c-3.89-5.94-7.55-12.03-11.03-18.23-5.01-9.35-10.77-18.7-13.02-29.21-1.46-7-1.75-14.16-1.68-21.28.02-3.57.42-7.1.19-10.6-.39-7.03-2.16-13.93-4.34-20.64-1.09-3.39-2.7-6.5-4.1-9.78-1.33-3.34-2.26-6.82-2.86-10.36-1.39-10.62-.64-21.38.44-31.99.29-3.18.97-7.39,1.42-10.57,0,0,.98.17.98.17h0Z" fill="#4b5a7e"/><path d="M411.21,77.39c-4,27.85-3.51,48.17,8.46,74.14,2.25,5.51,3.27,11.44,4.01,17.3,1.94,15.45,1.18,31.4,5.64,46.41,2.32,7.41,5.34,14.63,8.23,21.87,2.99,7.21,6.1,14.37,9.34,21.48,0,0-.9.44-.9.44-3.59-6.96-6.92-14.06-9.94-21.29-3.04-7.24-5.9-14.55-8-22.13-2.91-11.48-3.65-23.27-4.51-34.96-1.03-9.59-1.84-19.44-5.45-28.46-7.86-16-9.74-34.02-10.46-51.6-.11-7.86.7-15.77,2.6-23.39,0,0,.98.19.98.19h0Z" fill="#4b5a7e"/><path d="M411.51,78.82c.59,3.97.15,7.77.12,11.62-.11,11.46,1.26,23.33,7.06,33.44,3.91,6.72,9.78,12.49,12.32,20.04,1.35,3.76,2.07,7.76,2.18,11.74-.09,7.89-.61,15.6-.96,23.46-.19,3.86-.7,7.81-.87,11.64-.15,3.76.55,7.6,1.31,11.36,2.38,11.41,7.48,22.33,8.18,34.1.37,7.77,2.12,15.42,5.09,22.59l-.93.37c-2.79-7.32-4.55-15.08-5.02-22.89-1.15-15.77-10.99-29.44-10.4-45.61.84-7.8,1.81-15.47,2.07-23.32.55-7.67.46-15.54-2.7-22.65-2.89-6.99-7.71-13.18-11.54-20.12-3.87-6.9-6.43-14.53-7.64-22.35-1-7.74-1.78-16.02.74-23.55,0,0,.99.12.99.12h0Z" fill="#4b5a7e"/><path d="M412.61,84.2c-.43,5.38.25,10.87,2.36,15.84,2.23,4.52,6.05,9.3,8.61,13.9,3.9,6.2,7.12,12.91,9.4,19.88,1.33,3.37,2.86,6.69,4.8,9.75,1.02,1.56,1.73,3.32,2.3,5.07,2.22,7.07,1.63,14.69.58,21.9-.81,5.26-1.7,11.03-2.41,16.28-.39,3.57-1.26,7.15-.8,10.74.52,3.07,1.77,7.52,2.5,10.62,1.71,7.18,3.56,14.18,4.82,21.5.7,5.61.53,11.22-.28,16.78-.22.96-.16,1.91.07,2.89.11.74.18,1.56-.39,2.09-.27.17-.79.28-1.78.26,0,0-.97-.26-.97-.26-.87-.47-1.28-.8-1.44-1.07-.37-1.19.93-2.12,1.37-3.11,1.53-5.56,1.88-11.56,1.29-17.28-.97-6.09-3.09-15.23-4.34-21.42-.97-5.27-3.04-11.06-1.88-16.44.54-3.65,2.05-12.5,2.67-16.26,1.78-10.4,3.87-22.37-2-31.85-3.06-4.6-5.05-9.82-6.96-14.96-2.03-5.08-4.73-9.81-7.64-14.44-1.95-3.09-3.82-6.23-5.85-9.25-.99-1.5-2.11-3.07-2.81-4.83-2.19-5.15-2.83-10.89-2.23-16.41,0,0,1,.09,1,.09h0Z" fill="#4b5a7e"/><path d="M428.81,113.59c7.39,10.2,13.04,21.79,16.23,34.01,2.14,8.14,3.86,16.51,3.56,25-.24,8.47-2.9,16.61-5.19,24.68,0,0-3.47,12.08-3.47,12.08l-.96-.28c.6-2.36,3.33-13.09,3.81-15.19,2.27-11.04,5.67-22.43,3.6-33.74-1.42-8.15-3.83-16.21-6.86-23.92-3.07-7.72-6.99-15.09-11.55-22.06l.82-.57h0Z" fill="#4b5a7e"/><path d="M411.75,84.22c-.57-2.45-.71-5.11-1.36-7.48-.05-.12-.03.03.15,0-1.06,4.87-1.92,10.74-4.17,15.67-1.54,3.9-4.34,7.26-7.2,10.24-5.38,6.09-10.72,12.57-14.63,19.71-6.82,12.76-4.3,28.59,2.54,40.85,2.06,3.57,4.99,6.64,6.74,10.45.91,1.91,1.57,3.92,2.11,5.95,1.19,4.01,1.09,8.37.97,12.46.03,4.03.77,8.07,2.78,11.62,3.96,7.16,9.43,13.46,14.77,19.65,2.76,2.99,5.26,6.24,8.41,8.83,6.74,4.85,14.29,9.42,18.46,16.93,2.07,3.77,2.76,7.74,4.7,11.48,1.52,3.06,3.47,6.43,5.94,8.6-.12-.02.05-.05-.4-.03-.36-.16-.93,1.53-.61,1.05-3.63-5.24-7.05-11.65-7.44-18.35-.23-1.09.45-2.17.38-3.25.23-3.13,1.58-6.14,2-9.14.31-1.98.44-4.02.41-6.04-.06-4.11-1.1-8.04-2.24-11.99-2.87-9.3.16-15.91,4.54-23.9,10.19-18.09,8.26-40.75-1.12-58.76-3.74-6.91-8.9-13.17-14.15-19.02-.24-.27-.59-.56-.72-.95,0,0,.23.41.23.41-6.06-6.18-12.17-12.52-16.53-20.05-2.44-4.64-3.6-9.83-4.55-14.92h0ZM412.47,84.08c.95,5.04,2.26,10.07,4.72,14.57,4.46,7.3,10.65,13.44,16.72,19.4,0,0,.23.41.23.41,0-.07-.01-.15-.05-.21-.06-.09-.05-.07-.02-.03l.14.14c.1.09.68.72.81.85,5.29,5.75,10.34,11.77,14.1,18.68,7.63,14.81,10.3,32.58,5.41,48.67-2.18,8.02-7.72,14.73-10.03,22.6-1,3.96-.6,8.09.62,11.95,1.98,5.94,3.16,12.27,2.39,18.56-.31,3.16-1.47,5.98-1.59,9.06-.02.49-.07.98.15,1.47.47,2.41.35,4.9,1.06,7.31.99,4.12,2.82,8.09,5.24,11.69,0,0,.12.22.12.22.02.05.05.09.09.2.34-.43-.21,1.37-.66,1.19-.51.04-.41-.03-.59-.06-.11-.05-.13-.06-.19-.1-2.98-2.47-5.06-5.78-7.08-9.04-2.19-3.45-3.24-7.73-5.04-11.27-3.85-7.13-11.19-11.65-17.48-16.57-3.16-2.74-5.65-6.2-8.38-9.35-5.26-6.39-10.53-12.82-14.63-20.14-3.3-5.52-2.9-12.24-2.86-18.39-.26-4.01-1.37-8.03-3.06-11.67-1.75-3.73-4.66-6.72-6.75-10.3-7.08-12.6-9.63-29.04-2.55-42.22,4.97-9.16,12.12-16.81,18.96-24.55,3.68-4.91,5.38-10.96,6.59-16.94.3-1.28.41-2.63.98-3.88.08-.12.19-.38.61-.47.44-.04.68.33.72.44.76,2.56.74,5.18,1.32,7.76h0Z" fill="#4b5a7e"/><path d="M185.41.26c8.73,11.54,16.17,24.12,21.95,37.43,2.88,6.67,5.33,13.43,8.7,19.75,3.37,6.29,6.8,12.71,10.65,18.74,3.92,5.96,8.93,11.34,14.99,15.18,6.14,3.83,13.49,5.43,19.29,9.98,5.93,4.4,10.78,9.96,15.42,15.54,4.4,5.5,8.65,11.19,12.22,17.27.2.4.41.59.56,1.17,0,0-.22-.56-.22-.56,1.86,3.17,3.01,6.6,5.3,9.49,2.13,2.84,4.7,5.44,7.41,7.75.18.14.36.37.41.58,0,0-.31-.49-.31-.49,2.33,1.8,4.2,4.06,5.92,6.4,4.85,6.67,8.53,14.1,11.61,21.72.15.32.19.69-.25,1.25,0,0-.93.37-.93.37-1.13-.11-1.09-.94-1.47-1.69-3.02-7.05-6.01-14.34-10.31-20.7-1.59-2.28-3.39-4.44-5.55-6.07,0,0-.31-.49-.31-.49,0,.12.07.27.15.36-.35-.24-1.54-1.25-2.05-1.67-2.1-1.81-4.32-3.73-6.23-5.74-2.65-2.67-4.46-6.14-6.48-9.25,0,0-.22-.56-.22-.56.02.29.32.72.13.43-.15-.24-.48-.73-.64-.98-3.63-5.63-7.37-11.24-11.31-16.65-4.17-5.82-8.52-11.56-13.89-16.2-3.86-3.48-9.18-5.84-13.89-8-8.17-4.02-15.04-10.41-20.41-17.72-4.23-5.93-7.91-12.13-11.37-18.55-3.4-6.45-5.87-13.32-8.69-19.91-5.63-13.22-12.77-25.78-21.02-37.59l.81-.59h0Z" fill="#4b5a7e"/><path d="M185.35.97c.27-.28.17-.44.17-.49,0,0,.04.07.04.07,0,0,.16.22.16.22,1.56,1.9,4.56,5.19,6.22,7.09,11.18,12.71,19.43,27.66,26.51,42.95,2.64,6.19,5.9,11.91,10.14,17.1,3.01,3.98,6.16,7.95,9.9,11.29,8.69,7.95,18.78,14.19,27.38,22.28,6.18,5.79,11.24,12.81,14.73,20.53.66,1.42,1.22,2.94,1.78,4.39,0,0,.04.09.04.09.04.13.01-.33-.71-.17-.33.25-.25.47-.26.35-.13-1.56-.54-3.21-.95-4.74-2.25-7.95-6.32-15.56-12.28-21.34-4.88-4.57-9.89-9.07-15.19-13.18-2.68-2.08-5.18-4.41-7.54-6.84-4.69-4.9-8.68-10.34-12.82-15.68-4.06-5.4-7.65-11.24-10.18-17.55-2.28-6.3-6.05-11.88-10.67-16.69-9.15-9.21-17.81-19.09-26.27-28.95,0,0-.42-.43-.42-.43-.09-.1-.18-.17-.26-.23.06,0,.18.13.48-.08h0ZM184.66.13c.68-.49,1.28.47,1.7.83,4.12,4.63,8.31,9.67,12.5,14.21,4.52,5,9.26,9.71,13.94,14.58,4.67,4.9,8.51,10.77,10.79,17.16,1.22,3.1,2.72,6.08,4.47,8.93,1.73,2.85,3.75,5.51,5.81,8.15,4.16,5.27,8.12,10.74,12.7,15.56,2.31,2.41,4.73,4.69,7.35,6.76,5.3,4.17,10.3,8.7,15.21,13.36,6.09,5.98,10.21,13.78,12.48,21.96.42,1.7.9,3.37.96,5.14,0-.07.07.2-.29.5-.76.2-.83-.35-.81-.25-.27-.59-.63-1.66-.88-2.27-4.56-11.74-13.01-21.55-23.11-28.97-6.22-4.24-12.28-8.94-17.81-14.13-6.8-6.36-13.82-12.71-18.3-21.03-1.64-3.02-2.87-6.19-4.13-9.3-2.5-6.23-5.52-12.23-8.97-17.98-6.58-10.72-14.12-20.82-22.21-30.43,0,0-.81-.98-.81-.98,0,0-.4-.52-.4-.52-.11-.15-.23-.31-.31-.51-.02-.07-.04-.06-.06-.2-.02-.05-.07-.31.2-.59h0Z" fill="#4b5a7e"/><path d="M188.07,3.69c10.01,8.41,20.06,16.79,29.7,25.63,4.76,4.48,9.4,9.14,13.61,14.18,2.12,2.49,4.19,5.13,5.68,8.1,1.55,2.9,2.41,6.18,3.28,9.3,1.8,6.35,7.86,9.83,12.75,14.05l7.67,6.09c8.08,6.17,11.57,15.99,15.6,24.92,2.47,6.08,4.37,12.38,5.71,18.81l-.98.19c-1.15-6.4-2.96-12.69-5.48-18.69-3.89-8.74-8.25-17.9-15.77-24.08-5.07-4.16-10.11-8.28-15.03-12.64-2.5-2.2-4.41-5.16-5.4-8.35-.51-1.59-.86-3.17-1.4-4.69-1.52-4.64-4.26-8.64-7.5-12.29-4.2-4.98-8.88-9.51-13.6-14.01-4.7-4.52-9.47-8.98-14.4-13.27-4.96-4.24-9.94-8.46-15.09-12.48l.63-.78h0Z" fill="#4b5a7e"/><path d="M187.08,1.33c3.2,1.39,6.09,3.18,8.9,5.06,1.46.86,2.39,2.47,3.72,3.54,1.37,1,2.75,1.98,4.14,2.94,5.55,3.99,11.4,7.28,17.1,11.08,5.59,3.99,10.69,8.57,15.32,13.62,4.49,5.15,8.98,10.79,10.24,17.73.7,7.32,8.26,9.79,13.33,13.82,2.72,2.09,5.29,4.39,7.57,6.95,7.66,8.2,12.45,18.68,15.12,29.5,1.23,5.84,2.52,11.95,1.32,17.92,0,0-1,0-1,0-.79-3.37-.8-6.7-1.2-10.04-.39-3.32-.82-6.66-1.58-9.93-2.89-13.09-10.22-25.32-20.95-33.47-2.64-2.08-5.62-3.67-8.41-5.76-2.85-2.04-4.99-5.3-5.38-8.83-1.21-6.56-5.67-12.14-10.01-17.05-4.55-4.96-9.69-9.44-15.21-13.27-2.77-1.89-5.75-3.51-8.68-5.26-4.27-2.54-8.78-5.51-12.9-8.31-1.42-.94-3.23-1.34-4.51-2.48-2.67-2.13-5.28-4.35-7.56-6.97l.61-.8h0Z" fill="#4b5a7e"/><path d="M185.39.88c.33.28.65.41.84.6.17.15.42.59.67.94,3.39,5.06,6.23,10.5,8.31,16.24,2.27,6.57,4.17,13.21,6.58,19.66,1.19,3.24,2.84,6.3,4.09,9.52,1.62,4,3,8.18,4.21,12.32,3.13,8.81,8.17,17.08,14.28,24.13,9.46,10.02,22,16.57,33.19,24.46,2.68,1.84,10.15,7.09,12.74,8.95,1.08.74,3.11,2.25,4.12,3.16,2.71,2.22,5.58,4.05,8.34,6.27,0,0-1.4.45-1.4.45,1.94-6.96,2.78-14.25,2.31-21.47-.34-5.4-1.63-10.88-2.19-16.22-2.08-6.82-5.58-13.43-10.58-18.55-6.44-6.54-14.61-10.98-20.27-18.59-2.25-3-3.23-6.8-4.19-10.32-.98-3.46-2.57-6.7-4.72-9.56-2.15-2.77-5.14-4.92-8.13-6.93-9.07-5.89-19.21-10.55-28.97-15.2-5.74-2.81-13.83-6.39-19.21-9.85h0ZM184.62.23c.07-.1.36-.05.7.04.37.12.85.34,1.28.52,2.64,1.14,5.41,2.28,8.01,3.5,3.53,1.64,12.16,5.74,15.51,7.37,4.82,2.37,10.02,4.94,14.71,7.49,6.42,3.65,13.19,7.01,18.01,12.85,3.55,4.4,4.9,9.99,6.48,15.24,1.78,5.15,5.92,8.94,9.95,12.41,4.21,3.48,8.67,6.82,12.58,10.71,3.94,3.95,6.86,8.87,9,13.98.7,1.73,1.59,3.41,1.93,5.27.36,1.89.42,3.7.7,5.48,2.3,10.83,2.49,22.18-.45,32.94,0,0-.32,1.24-.32,1.24,0,0-1.08-.79-1.08-.79-3.34-2.45-7.07-5.29-10.56-7.44-1.24-.88-4.97-3.65-6.28-4.59-4.88-3.6-11.83-8.81-16.88-11.99-8.57-5.84-17.64-11.37-24.73-19.11-5.75-6.6-10.25-14.2-13.58-22.28-1.73-4.86-2.96-9.98-4.97-14.74-1.23-3.24-2.86-6.3-4.04-9.57-2.4-6.52-4.26-13.21-6.47-19.72-1.72-4.85-4.01-9.5-6.7-13.89-.93-1.61-2.26-3.11-2.81-4.92h0Z" fill="#4b5a7e"/><path d="M335.6,146.84c-2.41-2.2-4.25-5.06-5.31-8.22-.58-1.57-.7-3.38-.81-4.88-.27-3.07-1.61-5.64-3.98-7.73-2.32-2.25-4.39-4.86-5.95-7.72-1.54-2.81-4.89-9.91-6.35-12.88-3.15-5.67-4.49-12.26-3.53-18.7.97-6.35,2.33-12.64,4.97-18.52,2.68-5.94,7.78-10.25,12.65-14.34,2.45-2.05,4.95-4.03,7.54-5.91,5.21-3.81,11.14-6.39,17.13-8.56,6.01-2.15,12.18-3.82,18.42-5.12,0,0,.07.35.07.35-12.23,2.94-24.75,6.71-35.06,14.1-5.03,3.81-10,7.88-14.53,12.24-4.52,4.49-7.01,10.44-8.43,16.58-2.07,7.5-3.41,15.73-.27,23.1,1.27,2.94,4.99,9.78,6.45,12.75,1.45,2.8,2.86,5.57,4.89,8,1.94,2.64,4.8,4.27,6.37,7.31,1.66,2.85,1.18,6.42,2.09,9.4.89,2.91,2.45,5.61,4.37,8.07,0,0-.73.68-.73.68h0Z" fill="#4b5a7e"/><path d="M335.54,146.52c-.42-9.03-3.06-18.19-8.93-25.22-1.89-2.37-4.1-4.51-5.78-7.15-3.74-5.22-2.3-11.93-4.08-17.77-.68-3.01-2.37-5.64-2.79-8.77-.55-3.18-.07-6.4.8-9.4,1.46-4.47,3.64-8.64,6.78-12.14,3.39-3.14,7.03-5.85,10.4-9,6.84-6.06,13.22-12.88,21.59-16.89,5.49-2.74,11.39-4.58,17.39-5.83l.18.98c-8.95,1.4-17.85,4.51-25.04,10.13-2.41,1.88-4.37,4.19-6.54,6.34-4.4,4.26-9.09,8.18-13.86,12-7.91,5.63-12.83,18.57-8.66,27.69,1.2,2.87,1.9,5.98,2.2,9.08.29,4.5-.19,9.16,2.41,13.09,1.54,2.56,3.63,4.81,5.55,7.19,5.91,7.18,8.57,16.46,9.38,25.59,0,0-1,.07-1,.07h0Z" fill="#4b5a7e"/><path d="M335.47,146.53c-.54-11.37-2.18-22.76-4.86-33.82-1.27-5.63-3.78-10.74-5.39-16.29-2.59-11.25-1.24-23.83,5.55-33.38,5.79-8.38,14.09-14.35,22-20.51,1.15-.84,2.3-1.7,3.48-2.52,4.73-3.42,10.53-5.13,16.29-5.48,0,0,.06,1,.06,1-5.62.31-11.24,1.92-15.81,5.26-1.16.82-2.31,1.67-3.46,2.52-7.74,6.08-16.18,12.03-21.54,20.43-6.08,9.39-8.27,21.53-5.43,32.39,1.44,5.47,3.79,10.82,5.11,16.36.28,1.02.76,3.15.95,4.2.85,4.06,1.77,8.6,2.31,12.69.8,5.68,1.38,11.38,1.72,17.11,0,0-1,.05-1,.05h0Z" fill="#4b5a7e"/><path d="M335.68,147.37c1.6-9.27,3.92-19.17.04-28.21-3.33-6.05-5.79-12.63-6.8-19.48-.53-4.11-1.53-8.35-.62-12.5.71-3.5,3.02-6.29,4.89-9.18,1.78-2.91,2.47-6.18,2.88-9.61,1.45-13.68,15.8-23.6,26.61-30.35,2.44-1.36,4.88-2.89,7.75-3.08,0,0,.35.94.35.94-1.86,1.53-5.16,2.61-7.32,3.65-2.5,1.08-4.88,2.44-7.15,3.96-7.71,5.28-15.73,11.76-18.52,21.03-1.03,4.01-.83,8.28-2.69,12.14-1.05,2.56-3.04,4.67-4.35,7.04-2.85,4.84-1.62,10.55-.92,15.82.86,5.39,2.28,10.74,4.68,15.64,2.9,4.76,4.12,10.41,4.06,15.96-.02,5.52-.31,11.15-1.92,16.47,0,0-.98-.22-.98-.22h0Z" fill="#4b5a7e"/><path d="M336.27,145.16c2.66-8.88,4.51-18.47,1.88-27.55-1.44-4.45-4.3-8.66-4.3-13.55-.14-7.26,3.13-14.11,6.76-20.2,1.96-3.01,2.19-6.46,1.92-9.95.17-5.88.31-12.31,3.9-17.28,1.45-1.92,3.04-3.66,4.57-5.47,3.07-3.6,6.04-7.28,9.04-10.93,0,0,.77.63.77.63l-9.2,10.83c-1.53,1.8-3.14,3.55-4.55,5.41-2.81,3.78-3.42,8.67-3.61,13.28-.34,3.57.77,7.21-.29,10.73-1.04,3.48-3.42,6.27-4.79,9.59-3.03,6.23-5.16,13.49-2.19,20.1.87,2.2,2.07,4.28,2.81,6.55,3.28,9.15,1.51,19.28-1.77,28.15,0,0-.95-.32-.95-.32h0Z" fill="#4b5a7e"/><path d="M336.26,145.79c6.34-7.91,6.98-18.09,3.62-27.42-1.1-3.07-2.7-6.19-2.91-9.54-.2-3.36-.22-6.83.7-10.11,1.01-3.28,2.79-6.2,4.59-8.96,1.77-2.76,3.66-5.47,4.39-8.58.9-3.22.32-6.42.22-9.72-.1-5.57,1.68-11.97,3.97-17.39.54-1.35,1.17-2.77,1.77-4.1.2-.45.42-.9.92-1.2l.9.44c.08.58-.12,1.03-.35,1.46-.62,1.31-1.26,2.68-1.82,4-2.27,5.3-4.4,10.86-4.46,16.69.09,3.28.57,6.75-.21,10.02-.68,3.36-2.4,6.33-4,9.19-3.89,6.89-7.41,14.96-4.36,22.79,4.99,11.08,6.04,23.24-1.6,33.45,0,0-1.38-1.02-1.38-1.02h0Z" fill="#4b5a7e"/><path d="M349.15,199.01c-3.19-6.54-5.27-13.56-7.57-20.46-1.64-5.26-3.12-10.52-4.05-15.97-.36-1.8-.58-3.78-.48-5.64.06-3.29-.32-6.64-2.37-9.29-2.54-2.6-5.19-5.35-6.55-8.83-1.53-3.38-2.54-6.86-4.45-9.9-1.87-3.08-4.63-5.57-6.62-8.59-4.12-6.03-7.23-12.74-9.14-19.79-5.59-21.4,5.85-45.64,25.14-56.05,3.24-1.72,6.64-3.1,10.07-4.3,8.56-3.04,17.45-5.5,26.55-6.13.94-.04,4.92-.38,4.12,1.12-.32.32-.52.34-.75.45-1.93.68-3.89,1.25-5.72,2.11-8.3,3.64-13.71,11.85-15.34,20.58-.69,3.43-.9,7.06.08,10.41.46,1.66,1.34,3.2,2.01,5,1.94,5.42.39,11.81-3.3,16.08-4.11,4.86-9.67,8.48-11.09,14.93-.68,2.57-.76,5.33-.19,7.93.75,3.55,2.56,6.76,3.59,10.25,2.18,7.14.67,15.02-2.98,21.42-.98,1.57-1.75,3.34-3.36,4.4,0,0-.79-.62-.79-.62.6-1.76,1.9-2.99,2.76-4.59,3.61-6.05,5.56-13.48,3.7-20.43-.93-3.51-2.7-6.74-3.53-10.3-.65-2.69-.55-5.56.04-8.25,1.12-6.5,6.78-10.95,10.66-15.7,2.23-2.74,3.45-6.06,3.61-9.53.36-3.75-1.58-6.63-2.67-10.15-1.78-7.39.51-15.02,4.15-21.42,3.78-6.43,10.39-10.75,17.48-12.64.36-.17.78-.21,1.05-.42-.05.05-.04.17-.03.21-2.55-.3-5.98.11-8.8.57-7.16,1.09-14.08,3.23-20.91,5.64-3.41,1.19-6.76,2.54-9.94,4.23-15.88,8.52-25.99,26.42-26.2,44.31-.01,7.23,1.96,14.31,4.99,20.84,1.53,3.27,3.23,6.47,5.33,9.4,2.06,3.01,4.83,5.43,6.78,8.54,1.99,3.12,3.14,6.66,4.9,9.74,1.75,3.33,4.45,5.38,7.25,7.79,2.75,2.95,3.8,7.26,3.27,11.16-.32,1.77-.57,3.4-.45,5.21.45,5.36,2.05,10.59,3.64,15.73,1.65,5.17,3.5,10.28,5.36,15.38.64,1.69,1.28,3.39,1.67,5.18,0,0-.93.36-.93.36h0Z" fill="#4b5a7e"/><path d="M210.46,131.94c-.27.37-.69.23-1.06.23-2.97-.1-5.93-.48-8.83-1.1-7.68-1.65-14.71-5.34-22.29-7.21-4.48-1.37-9.19-1.11-13.79-2.11-9.35-1.54-18.52-4.34-27.01-8.58-24.72-11.91-40.3-28.34-51.53-52.79-2.15-4.42-3.62-9.27-5.59-13.73-1.03-2.2-2.36-4.23-3.7-6.32-2.63-4.08-5.31-8.26-9.01-11.41-1.26-1.11-2.67-1.98-4.14-2.81-.23-.14-.69-.5-.64-1,.06-1.94,8.23-.42,9.66-.44,12.27,1.58,24.73,2.69,36.47,6.97,4.64,1.79,9.25,3.62,13.67,5.89,2.22,1.12,4.41,2.33,6.41,3.83,3.85,3.09,7.09,6.91,11.3,9.53,2.04,1.33,4.2,2.55,6.55,2.95,1.17.2,2.43.26,3.68.5,3.73.71,7.23,2.42,10.28,4.62,7.82,6.16,15.58,12.41,22.05,20.04,4.84,5.75,8.47,12.53,10.65,19.7,2.45,6.94,5.67,13.6,9.43,19.92,1.97,3.12,4.25,6.01,5.99,9.27.4.75.76,1.54,1.06,2.34,0,0,.04.11.04.11,0,0,.09.18.09.18.25.51.27,1.11.26,1.4h0ZM209.59,131.45c-.43-.26-.67-.09-.86-.12-.7-.59-1.34-1.24-1.92-1.94-2.4-2.9-4.03-6.32-5.73-9.64-2.34-4.4-4.64-8.82-6.56-13.43-2-4.51-3.25-9.41-5.11-13.93-1.92-4.45-4.66-8.58-7.68-12.38-4.61-5.72-10.32-10.54-15.85-15.39-3.69-3.21-7.38-6.51-11.99-8.26-2.31-.98-4.63-1.23-7.12-1.6-6.18-1.52-10.94-6.13-15.35-10.42-2.6-2.62-5.75-4.57-9.03-6.24-4.38-2.24-8.89-4.32-13.64-5.66-4.18-1.18-10.14-2.24-14.41-3.27-7.22-1.58-14.51-3.03-21.89-3.62-2.77-.24-6.04-.48-8.46-.09.11-.06.12-.41.06-.46-.07-.1.04.02.13.06,3.88,1.81,7.07,4.87,9.59,8.26,2.91,4.11,5.64,8.21,7.77,12.79,1.91,4.68,3.17,9.42,5.32,13.97,2.62,5.6,5.58,11.1,8.91,16.3,6.69,10.52,15.76,19.37,26.11,26.28,10.22,7.16,22.04,11.44,34.08,14.33,6.07,1.55,11.99,2.81,18.29,3.31,12.23,2.21,22.31,9.63,34.67,10.74,0,0,.58.07.58.07l.29.04.14.02s.07,0,.07,0c.03,0,.03-.01-.13.02-.12.03-.23.15-.27.24h0Z" fill="#4b5a7e"/><path d="M73.61,32.39c5.52,6.29,10.88,12.79,15.66,19.65,3.24,5.04,6.13,10.33,8.6,15.79,3.6,8.75,8.94,16.89,17.44,21.42,4.15,2.29,8.59,4.22,12.6,6.82,8.15,5.13,15.08,12.04,20.71,19.78l-.81.59c-5.61-7.63-12.47-14.4-20.51-19.41-4.02-2.58-8.38-4.44-12.58-6.74-4.26-2.31-8.02-5.54-11.09-9.28-3.11-3.76-5.21-8.21-7.23-12.5-3.01-6.46-6.72-12.53-10.57-18.49-1.05-2.15-2.54-4.02-3.91-5.95-2.8-3.84-5.84-7.51-9.05-11.01,0,0,.74-.67.74-.67h0Z" fill="#4b5a7e"/><path d="M65.9,25.32c.74-.55.94-.14,1.45.17,0,0,1.08.73,1.08.73,10.77,7.34,20.49,16.18,29.48,25.58,4.81,5.03,8.74,10.82,13.8,15.45,5.05,4.63,10.84,8.43,17.21,10.92,3.19,1.27,6.46,2.63,9.52,4.37,3.05,1.73,5.95,3.75,8.59,6.06,5.36,4.6,9.36,10.34,14.19,15.24,7.19,7.44,15.56,13.68,24.43,18.99,2.97,1.75,6.02,3.37,9.1,4.93,0,0-.45.89-.45.89-6.18-3.18-12.18-6.7-17.87-10.69-5.7-3.98-11.03-8.48-15.94-13.4-4.98-4.87-9.1-10.53-14.38-14.87-2.61-2.2-5.49-4.06-8.45-5.75-6.01-3.34-12.95-5.14-18.65-9.17-2.91-1.95-5.64-4.18-8.14-6.63-5.07-4.88-8.77-10.81-13.56-15.77-8.97-9.97-20.05-17.67-31.23-24.94,0,0-.54-.35-.54-.35-.17-.13-.29-.35-.17-.92,0,0,.55-.84.55-.84h0Z" fill="#4b5a7e"/><path d="M66.79,25.08c1.25-.71,2.18-.56,3.03-.21,2.61.93,4.97,2.41,7.35,3.81,2.39,1.39,4.9,2.5,7.31,3.85,4.78,2.7,9.76,5.55,13.21,9.98,2.2,3.65,5.13,7.83,7.71,11.27,3.17,4.37,7.09,8.27,12.08,10.48,6.64,3.06,12.83,7.05,18.73,11.34,5.79,4.44,11.38,8.98,17.96,12.19,2.38,1.26,5.05,2.37,7.19,4.12,3.68,2.81,6.73,6.48,8.96,10.51,1.83,3.14,3.07,6.61,5.09,9.61,1.99,2.96,4.54,5.53,7.38,7.73,5.74,4.35,12.45,7.3,19.33,9.52l-.3.95c-6.97-2.19-13.85-5.06-19.76-9.53-2.92-2.25-5.58-4.91-7.66-8-2.07-3.05-3.32-6.52-5.16-9.67-2.19-3.91-5.1-7.41-8.66-10.11-2.12-1.72-4.57-2.7-7.01-3.99-9.87-4.91-17.53-13.08-26.9-18.76-4.54-3.1-9.79-4.87-14.36-7.94-2.96-2.22-5.49-4.95-7.68-7.9-2.58-3.38-5.58-7.62-7.85-11.16-2.8-3.5-6.74-5.83-10.66-7.97-3.2-1.68-6.44-3.32-9.88-4.47-2.49-.74-5.38-1.49-7.77-2.51-.85-.32-1.61-.83-2.06-2.21,0,0,.36-.93.36-.93h0Z" fill="#4b5a7e"/><path d="M67.66,24.85c1.58-.05,4.05-.05,5.67,0,1.9.08,3.7.68,5.52,1.17,7.23,2.1,14.07,5.62,19.98,10.28,2.54,1.91,5.96,5.26,8.29,7.5,5.27,5.13,11,9.73,16.67,14.39,5.7,4.69,11.03,9.34,17.79,12.05,3.4,1.32,7.1,2.27,10.42,3.88,3.37,1.6,6.6,3.45,9.68,5.57,6.18,4.22,11.54,9.95,14.84,16.72,3.95,8.21,7.3,17.05,15.06,22.4,3.89,2.44,7.51,5.13,10.28,8.83.57.76,1.13,1.54,1.58,2.48,0,0-.57.82-.57.82-5.88-.97-10.49-5-13.56-9.9-4.27-6.18-9.51-11.67-12.75-18.52,0,0-2.32-4.98-2.32-4.98-4.54-9.92-12.87-17.79-22.73-22.37-3.34-1.64-6.86-2.36-10.5-3.18-7.46-1.7-13.84-6.18-19.35-11.31-5.52-4.92-10.73-10.22-15.93-15.46-2.6-2.62-5.2-5.16-8.15-7.25-5.88-4.23-12.66-6.94-19.61-8.84-3.59-.76-6.98-2.1-10.45-3.28,0,0,.14-.99.14-.99h0Z" fill="#4b5a7e"/><path d="M89.39,31.02c9.91,1.57,19.82,4.71,27.96,10.77,5.38,4.04,9.78,9.15,14.71,13.64,4.73,4.44,9.94,8.66,16.49,9.67,3.24.51,6.93.84,9.96,2.4,6.36,2.83,10.75,8.52,14.7,13.96,3.92,5.42,7.68,11.01,11.03,16.78,1.73,2.84,3.34,5.84,5.01,8.66,1.78,2.75,3.94,5.28,6.21,7.7,3.49,3.56,6.9,7.19,10.64,10.49,1.23,1.41,1.59,3.28,1.54,5.3,0,0-.74.67-.74.67-2-.16-3.87-.76-5.11-2.17-.89-1.45-1.94-2.76-2.92-4.14-1.97-2.74-3.85-5.55-5.65-8.42-3.76-5.59-6.52-11.76-9.82-17.6-3.29-5.8-7.27-11.12-11.45-16.29-6.86-8.52-12.41-14.16-23.8-15.19-6.92-1.11-12.49-5.83-17.24-10.62-4.75-4.66-9.01-9.86-14.22-13.96-7.91-6.04-17.65-9.25-27.45-10.67,0,0,.15-.99.15-.99h0Z" fill="#4b5a7e"/><path d="M64.73,24.54c10.81,6.16,19.71,15.33,26.79,25.48,3.39,5.18,6.58,10.36,10.81,14.88,6.18,6.64,11.9,14.05,19.73,18.81,5.2,3.31,11.69,4.09,16.89,7.46,2.64,1.71,4.99,3.89,6.87,6.46,1.87,2.59,3.25,5.29,5.13,7.63,1.86,2.36,3.97,4.5,6.21,6.55,2.25,2.03,4.74,3.84,7.45,5.25,2.74,1.39,5.72,2.13,8.32,3.86,0,0-.36.93-.36.93-3.15-.5-5.79-2.31-8.46-3.88-5.41-3.06-10.91-6.46-14.62-11.6-1.91-2.45-3.23-5.34-4.88-7.9-3.29-5.18-8.6-8.57-14.52-10.11-14.5-3.65-20.02-11.49-28.99-22.4-3.98-4.73-7.12-10.17-10.54-15.26-3.55-4.98-7.79-9.45-12.27-13.59-4.48-4.17-9.29-7.92-14.11-11.73l.56-.83h0Z" fill="#4b5a7e"/><path d="M174.4,188.84c-9.65,8.11-22.09,14.82-35.09,13.13-5.31-.81-10.36-3.4-15.8-2.38-7.11,1.08-13.42,5.8-20.77,6.37-3.67.47-7.42.37-11.05-.34,0,0,.11-.99.11-.99,7.15.17,14.31-.52,20.9-3.42,7.19-3.32,13.92-4.68,21.61-1.81,6.81,2.42,14.24,2.1,21.02-.28,6.8-2.34,12.98-6.32,18.42-11.05l.65.76h0Z" fill="#4b5a7e"/><path d="M1.34,197.42c4.26-2.02,9.01-2.83,13.68-3.24,7.01-.41,13.85,1.53,20.83,1.73,6.94.34,14.04.55,20.77,2.43,4.49,1.18,8.96,2.55,13.49,2.84,6.84.34,13.53-2.26,20.02-4.27,0,0,6.6-2.13,6.6-2.13,4.4-1.44,8.58-3.31,12.71-5.43,4.14-2.2,8.75-3.39,13.38-4.1,9.26-1.26,18.58-.65,27.89-.47,4.58,0,9.2.98,13.71-.09,9.06-1.8,16.66-7.74,24.79-11.91,8.15-4.48,16.5-8.58,25-12.33l.41.91c-8.45,3.79-16.74,7.93-24.83,12.45-9.19,4.86-17.88,11.83-28.6,12.76-3.55.17-6.97-.36-10.51-.34-6.65-.1-14.13.03-20.84-.08-6.88-.35-13.97.33-20,3.94-2.02,1.12-4.05,2.28-6.15,3.3-6.31,3.07-12.99,5.18-19.69,7.17-17.74,5.95-24.95-3.8-41.21-3.18-4.64.25-9.36.49-14-.16-4.6-.47-9.05-1.71-13.68-1.52-3.41.09-6.83.67-10.08,1.74-1.11.29-2.2.63-3.32.91,0,0-.35-.94-.35-.94h0Z" fill="#4b5a7e"/><path d="M1.27,196.78c.14-1.22.77-1.22,1.26-1.53,2.43-.9,5.81-1.46,8.4-2,7.81-1.82,15.83-3.04,23.87-2.6,6.8.54,13.43,2.03,20.24,2.15,13.44.4,27.22-.35,39.83-5.29,4.14-1.75,8.1-4.27,12.47-5.55,4.37-1.38,8.9-2.41,13.53-2.64,4.62-.25,9.16.13,13.64.07,9.01-.04,17.9-1.42,26.62-3.75,12.99-3.44,26.22-7.48,38.87-12.09,0,0,6.37-2.35,6.37-2.35.53-.2,1.06-.39,1.58-.61,1.06-.45,1.91-1.41,2.87-2.02,0,0,.37-.22.37-.22.12-.08.25-.13.45,0,.4.26.81.57,1.39,1.32,0,0,.35.94.35.94.05.95-.06,1.46-.2,1.91-.07.22-.2.27-.35.29-.74.15-1.45.16-2.21.17-1.2-.04-2.25.38-3.35.76-3.92,1.35-15.3,5.03-19.44,6.35-13.06,3.92-26.05,8.45-39.63,10.33-4.53.58-9.12.89-13.7.86-4.58,0-9.11-.44-13.56-.23-4.45.19-8.84,1.16-13.12,2.48-4.39,1.26-8.16,3.68-12.39,5.42-8.58,3.32-17.66,4.95-26.8,5.57-6.84.37-13.7.49-20.54-.14-6.74-.71-13.34-2.36-20.14-1.93-7.25.34-14.63,1.41-21.31,4.38-1.06.36-2.05.92-3.11,1.25-.57.08-1.01.47-1.93-.36,0,0-.36-.93-.36-.93h0Z" fill="#4b5a7e"/><path d="M203.88,158.42c-11.27,7.01-24.16,11.92-37.54,12.27-13.23-.19-26.48.66-39.67.89-13.09.77-26.36,3.42-38.35,8.81-2.96,1.41-5.98,2.92-9.15,3.98-9.47,3.25-19.49,4.57-29.43,5.29-7.58-.18-17.01-.56-24.56-.46,0,0-4.1.13-4.1.13l-2.05.03c-.68,0-1.37.09-2.04-.21l.02-1c.69-.28,1.37-.16,2.05-.15,1.21.03,4.86.27,6.14.35,7.52.34,16.98.23,24.57.3,9.56-.98,19.7-2.4,29.02-5.43,6.24-2.05,12.14-5.38,18.55-7.04,9.56-2.8,19.35-4.84,29.27-5.79,31.39-2.22,47.1,5.31,76.77-12.82,0,0,.53.85.53.85h0Z" fill="#4b5a7e"/><path d="M253.91,150.51c-1.27.61-2.67.81-4.01.6,0,0-1.93-.27-1.93-.27l-.48-.06c-2.77-.26-5.56.49-8.41,1.31-4.85,1.49-9.63,3.51-14.34,5.64-9.46,4.31-18.49,9.51-27.47,14.72-9.01,5.09-17.77,10.87-24.43,18.89-11.8,16.1-38.4,22.12-57.45,20.61-5.25-.4-10.45-1.39-15.49-2.97-4.96-1.74-9.53-3.88-14.81-4.23-5.16-.66-10.23.13-15.34,1.02-5.16.86-10.44,1.24-15.66,1.19-7.8.13-15.86-.35-23.24-3.22-3.7-1.33-7.16-3.13-10.89-4.3-4.95-1.52-10.2-1.85-15.29-.82-1.15.11-2.4.66-3.63.1-.73-.36-1.22-1.32-.98-2.13.13-.71.67-1.34,1.05-1.69,1.81-1.67,4.16-2.52,6.38-3.41,2.49-.92,4.87-1.96,7.23-3.17,2.38-1.16,4.99-1.67,7.55-2.26,5.07-1.35,10.29-2.48,15.56-2.39,5.21.05,10.3-.17,15.39-1.28,7.58-1.51,14.7-4.76,21.68-8.06,9.3-4.39,19.15-8.52,27.93-13.84,15.53-9.6,36.04-11.32,53.38-5.98,4.95,1.5,9.53,4.34,14.52,5.45,4.97.96,10.12.16,14.9-1.49,7.44-2.79,15.85-3.43,23.68-1.83,2.58.74,5.49.95,7.49,2.95,0,0-.88,1.83-.88,1.83-2.63-.21-4.66-1.85-7.2-2.3-7.44-1.75-15.26-1.24-22.49,1.27-7.96,2.67-15.83,2.49-23.35-1.5-14-6.84-30.36-7.15-45.29-3.33-2.51.63-5.01,1.3-7.37,2.29-4.75,2.01-9.04,5.12-13.57,7.61-8.94,5.1-18.53,10.03-28,14.08-7.22,3.16-15.05,5.2-22.98,5.54-5.23.22-10.39-.44-15.54.45-2.53.42-5.09.95-7.57,1.65-2.47.79-4.81,1.89-7.3,2.59-4.7,1.21-9.15,3.98-12.42,7.51.07-.34-.1-.81-.46-.97-.09-.05-.11,0,0,.03.06.03.2.06.32.09,4.52.4,9.19.48,13.67,1.34,7.69,1.56,14.46,6.01,22.25,7.2,5.07.96,10.28.91,15.48.85,7.88.16,15.45-1.5,23.22-2.56,5.29-.48,10.66-.03,15.76,1.54,16.66,7.16,35.82,7.82,52.96,1.86,6.04-2.13,11.8-5.17,17.05-8.79,3.26-2.16,5.8-4.75,8.43-7.73,7.26-7.68,16.2-13.33,25.09-18.84,7.72-4.72,19-11.83,27.03-15.87,4.67-2.39,9.41-4.67,14.49-6.38,3.16-1.03,6.72-2.09,10.27-1.68,0,0,1.94.21,1.94.21,1.35.14,2.64.63,3.75,1.55,0,0-.17,1.36-.17,1.36h0Z" fill="#4b5a7e"/><path d="M50.65,183.35c13.17-2.18,26.5-4.19,38.79-9.54,4.13-1.8,7.79-4.19,11.65-6.53,5.84-3.43,12.07-6.25,18.5-8.35,6.44-2.27,13.59-3.24,20.27-1.53,2.24.57,4.29,1.53,6.38,2.29,2.09.77,4.22,1.4,6.38,1.91,0,0-.31-.01-.31-.01.24-.03.48.06.71.11,4.26.94,8.63,1.56,12.96,2.09,8.95,1.22,18.02.53,26.74-1.79,4.35-1.18,8.62-2.68,12.78-4.51l.43.9c-8.19,4.18-17.15,6.99-26.35,7.74-8.65.71-17.34-.42-25.65-2.77-.4-.12-1.06-.3-1.45-.42-.03,0-.09-.03-.08-.03.06.01.12,0,.18-.03-4.42-1-8.59-3.41-12.96-4.45-8.82-1.82-17.34,2.22-25.45,5.17-4.12,1.6-8.21,3.34-12.15,5.37-3.93,2.05-7.86,4.44-12.02,6.1-12.37,5.42-25.79,8.46-39.23,9.28,0,0-.11-.99-.11-.99h0Z" fill="#4b5a7e"/><path d="M151,270.19c1.98-.13,3.93-.09,5.89-.38.04,1.29.03.36.05.64,0,0,.04,0,.04,0,0,0,.09,0,.09,0,0,0,.17-.01.17-.01,7.26-.26,14.22-2.92,20.15-7.06,7.99-5.03,12.95-13.85,21.86-17.49,3.47-1.2,6.91-2.43,9.55-5.09,3.89-3.96,6.52-9,9.6-13.61,6.29-9.3,12.44-18.64,19.96-27.06,3.16-3.49,6.96-7.05,11.91-7.42,0,0,2.78-.29,2.78-.29,7.41-.92,14.43-3.5,21.3-6.33,5.35-2.05,11.09-2.66,16.78-2.98,1.92-.08,3.85-.07,5.75.19,2.01.3,3.96.4,5.36,2.23,0,0-.23.97-.23.97-2.15,1.12-3.81.37-5.63.17-1.79-.31-3.57-.64-5.38-.91-7.37-1.25-14.66.56-21.54,3.29-6.16,2.18-12.56,3.95-19.08,4.6-4.69.55-8.01,4.05-10.92,7.48-4.83,5.61-9.17,11.66-13.83,17.5-4.71,5.82-8.81,11.99-12.68,18.39-1.97,3.21-4.48,6.34-7.9,8.14-1.69.97-3.58,1.52-5.21,2.2-5.16,2.12-9.07,5.95-13.1,9.85-8.06,7.6-18.13,14.63-29.67,14.47,0,0-.09,0-.09,0,0,0-.04,0-.04,0-.01.29-.04-.64-.03.65-2.05-.23-4.1-.46-6.06-1.11,0,0,.13-.99.13-.99h0Z" fill="#4b5a7e"/><path d="M153.17,270.57c7.5,1.06,15.39.85,22.62-1.58,3.63-1.19,7.04-3,10.37-4.89,9.83-5.93,19.56-12.41,28.42-19.66,2.92-2.46,5.47-5.22,7.49-8.4,2.04-3.18,3.2-6.99,5.21-10.24,5.84-9.76,12.93-20.4,24.08-24.49,10.78-4.24,21.4-8.75,32.4-12.41,7.37-2.53,15.41-3.25,22.99-1.24,0,0-.24.97-.24.97-11.59-3.32-22.61.74-33.38,4.89-7.19,2.75-14.35,5.61-21.47,8.54-1.75.76-3.59,1.46-5.13,2.45-7.86,5.57-12.98,13.91-17.67,22.18-1.98,3.36-3.08,7.06-5.29,10.33-4.27,6.64-11.17,10.92-17.59,15.21,0,0-9.67,6.34-9.67,6.34-14.6,9.85-25.07,15.31-43.33,13.41,0,0,.18-1.41.18-1.41h0Z" fill="#4b5a7e"/><path d="M153.42,272.57c.95-.42,1.9-.35,2.86-.44,2.85-.18,5.7-.49,8.53-.78,11.26-1.09,22.69-3.19,33.05-7.75,3.48-1.51,6.55-3.66,9.61-5.87,9.37-6.62,17.3-14.73,24.7-23.54,6.33-7.17,12.11-14.79,18.26-22.12,3.76-4.42,8.6-7.84,13.42-11.03,9.7-6.42,21-10.02,32.44-11.7,3.8-.61,7.64-1.11,11.5-.9,0,0,.06,1,.06,1-20.7,2.59-35.74,5.99-52.23,19.76-2.92,2.31-5.26,5.34-7.85,8.16-5.07,5.72-10.11,11.47-14.94,17.4-3.7,4.4-7.14,9.03-11.16,13.17-4.06,4.11-8.52,7.8-13.17,11.23-9.15,7.36-20.74,10.49-32.12,12.38-7.56,1.16-15.42,2.06-22.97,1.04h0Z" fill="#4b5a7e"/><path d="M153.23,271.11c.3-.23.6-.21.91-.19.89.06,1.83.09,2.71.19,3.53.39,7.28.82,10.78,1.14,5.17.44,10.83.58,16.08-.44,0,0,5.3-1.07,5.3-1.07,1.85-.37,6.19-1.28,7.96-1.63,11.28-1.1,22.41-8.13,29.93-16.36,3.88-3.95,5.37-9.36,9.17-13.35,2.34-2.8,5.55-5,8.67-6.76,4.56-2.73,8.59-6.42,11.42-10.94,2.7-4.74,6.03-9.37,10.94-12.06,4.91-2.3,9.57-4.91,14.1-7.88,6.04-3.96,12.01-8.54,19.21-10.34,3.58-.86,7.35-1.5,10.99-.65,0,0-.05,1-.05,1-3.53.52-7.04.51-10.47,1.47-6.96,1.75-12.83,6.02-18.87,9.78-3.08,1.92-6.25,3.69-9.5,5.31-1.61.82-3.32,1.55-4.92,2.28-3.05,1.61-5.8,4.16-7.83,6.98-1.02,1.45-1.9,3.02-2.84,4.57-2.83,4.69-6.76,8.79-11.33,11.82-4.6,2.67-8.69,6.13-11.46,10.69-.86,1.49-1.66,3.2-2.74,4.72-7.53,10.3-19.2,17.53-31.61,20.13-.87.19-1.89.18-2.68.33,0,0-2.64.54-2.64.54-2.62.55-7.97,1.67-10.6,2.2-5.32,1.01-10.94.46-16.22-.02-4.18-.54-8.42-.47-12.62-.28,0,0-.9.02-.9.02-.3.01-.6.02-.89-.21,0,0,0-1,0-1h0Z" fill="#4b5a7e"/><path d="M308.63,192.86c-19.8,12.03-39.26,25.48-54.22,43.37-3.77,4.47-6.9,9.44-10.98,13.67-10.24,10.72-24.63,16.39-38.96,19.07-2.88.47-5.74,1.12-8.68,1.16.06-.26.16-.18.25-.21l.27-.04s.54-.09.54-.09c2.47-.39,5.08-.87,7.51-1.4,14.04-3.08,28.02-8.9,38.09-19.44,3.99-4.13,7.27-9.01,11.11-13.44,9.6-11.04,20.35-21.11,32.19-29.71,7.05-5.21,15-9.36,22.89-12.94h0Z" fill="#4b5a7e"/><path d="M336.52,193.29c-3.72-.9-7.03-2.8-10.85-3.15-3.9-.75-7.54.5-11.43.74-4.25.16-8.46-1.09-11.98-3.3-3.21-2.13-6.87-3.17-10.57-4.16-15.01-3.79-31.68-2.79-45.57,4.3-10.44,5.33-18.34,14.73-23.86,24.91-2.82,5.18-4.08,10.96-6.13,16.5-2.11,5.7-7.42,10.25-13.5,11-3.91.51-7.6,1.59-10.88,3.79-3.3,2.06-6.1,4.85-8.86,7.63-4.11,4.24-8.06,8.6-12.07,12.94-5.09,4.96-12.51,6.19-19.32,6.32-.1.01-.23.04-.27.06-.02,0-.03.01,0,0,0-.01,0,0,.05-.07.02-.07.02-.11.03-.11,0-.02,0-.03-.01-.04.45.4,1.06.79,1.66,1.05,8.8,3.77,19.04,5.76,28.47,3.58,5.61-1.79,11.52-3.07,17.45-3.29,27.18.86,60.51-28.94,77.44-48.61,1.11-1.27,2.23-2.65,3.27-3.98,0,0,.23-.29.23-.29.05-.09.07-.04.17-.07,2.01-3.73,4.69-7.17,7.41-10.43,2.8-3.13,5.48-6.47,8.76-9.22,6.65-5.32,14.47-9.22,22.71-11.18,0,0,.29.96.29.96-7.8,2.87-15.14,6.8-21.73,11.85-6.94,4.63-12.72,10.89-16.94,18.11-11.52,14.77-26.86,29.36-42.97,40.3-9.92,6.38-20.77,12.22-32.67,13.57-3.93.15-7.84.03-11.74.63-3.9.48-7.65,1.51-11.42,2.62-3.9.98-7.94,1.02-11.88.66-5.91-.63-11.77-2.03-17.17-4.55-.73-.44-1.7-.7-2.04-1.61-.06-.48.47-.64.82-.67,6.73-.08,13.99-1.17,19.04-5.99,4.01-4.3,7.97-8.7,12.07-12.93,4.04-4.27,8.48-8.59,14.15-10.63,3.66-1.39,7.82-1.17,11.15-3.29,1.61-.99,3.09-2.25,4.31-3.69,2.49-2.9,3.47-6.72,4.61-10.48,1.13-3.78,2.51-7.53,4.36-11.07,5.65-10.41,13.84-19.85,24.54-25.25,10.67-5.42,22.8-7.15,34.65-6.59,7.88.43,16.34,1.18,23.3,5.22,3.2,1.87,6.89,2.82,10.51,2.57,3.68-.42,8.08-1.64,11.98-.9,3.94.65,8.33,1.58,11.52,4.03,0,0-1.07,2.19-1.07,2.19h0Z" fill="#4b5a7e"/><path d="M426.56,267.39c-4.18-.29-8.24-1.26-12.43-1.46-8.31-.59-16.72,0-24.8,2.11-4.04,1.02-7.98,2.54-12.11,3.52-8.25,2-16.81,2.41-25.24,1.68-4.22-.37-8.41-1.06-12.54-2.07-4.12-.93-7.95-2.92-11.91-4.25-3.96-1.3-8.05-2.2-12.11-3.16-4.07-.95-8.16-1.88-12.3-1.88-4.08.05-8.32,1.08-11.64,3.51-1.64,1.24-3.29,2.63-5.08,3.77-8.87,5.72-19.25,10.22-30.03,9.21-8.44-.56-16.76-1.74-25.09-3.06,0,0,.14-.99.14-.99,8.35.72,16.71,1.77,25.05,2.28,10.44.89,20.55-3,29.4-8.27,1.78-1.08,3.37-2.39,5.1-3.66,7.24-5.04,16.63-4.09,24.77-2.37,6.17,1.2,12.46,2.8,18.22,5.42,5.77,2.38,11.96,3.53,18.15,4.23,8.29.88,16.76.53,24.86-1.42,4.04-.99,7.97-2.5,12.07-3.6,8.17-2.25,16.74-3.06,25.19-2.51,4.21.38,8.5.6,12.53,1.99,0,0-.2.98-.2.98h0Z" fill="#4b5a7e"/><path d="M232.64,275.11c18.69,2.25,45.48,11.32,63.17,3.74,4.06-1.64,6.94-5.4,11.31-6.31,8.74-2.14,17.31,1.71,25.8,3.25,10.49,2.18,21.05,4.44,31.68,5.67,4.16.42,8.39.02,12.16-1.84,1.82-.91,3.63-2.21,5.61-3.17,7.9-3.86,16.52-5.72,25.11-6.63,8.57-1.1,17.27-1.29,25.89-.69,0,0-.06,1-.06,1-8.57-.43-17.15.04-25.65,1.17-8.43,1.02-16.91,2.9-24.54,6.63-3.72,2.05-7.58,4.71-12.03,5.12-4.47.61-8.85-.09-13.08-.91-8.44-1.82-16.7-4.22-25.2-5.75-8.21-1.31-16.87-4.13-25.09-1.79-4.23,1.16-6.94,4.94-11.06,6.27-8.42,3.04-17.3,1.99-25.97,1.54-8.61-.63-17.19-1.68-25.69-3.24-4.25-.76-8.47-1.69-12.58-3.08l.23-.97h0Z" fill="#4b5a7e"/><path d="M236.56,276.27c-1.23-.08-2.54-.28-3.63-.08.1-.04.21-.08.32-.31.09-.15.06-.45,0-.54,0-.07-.1-.14-.09-.17,0,0,.1.04.1.04.62.23,1.25.39,1.92.56,3.3.87,6.78,1.57,10.02,2.71,3.11,1.52,6.23,3.14,9.31,4.72,5.98,3.01,12.51,5.52,19.22,5.65,4.67.09,8.54-2.34,12.94-3.68,3.42-.9,6.96-1.26,10.48-.82,3.39.68,6.56,1.8,10.05,1.74,4.56.18,9-.42,13.41-1.61,2.22-.54,4.65-1.03,7.09-.7,3.56.31,6.66,2.32,9.79,3.65,4.11,1.45,8.53.75,12.62-.52,3.42-.99,7.05-1.58,10.64-1.42,6.83.59,13.46,2.03,20.17.12,4.39-1.15,8.3-3.54,12.28-5.72,6.08-3.38,12.62-5.93,19.44-7.41,4.53-1.08,9.17-1.94,13.86-2.08,4.66-.08,9.44.01,13.77,2.43,0,0-.14.99-.14.99-4.74,1.14-9.12.55-13.61.53-4.46-.08-8.98-.21-13.45.43-4.47.63-8.83,1.88-13.04,3.52-4.25,1.6-8.14,3.94-12.23,6.11-4.13,2.18-8.68,3.61-13.31,4.29-4.51.77-9.4.3-13.86.12-4.52-.19-8.77,1.06-13.18,1.98-3.63.58-7.46.35-10.89-1.1-3.1-1.49-5.72-3.67-9.14-4.17-2.17-.4-4.34-.07-6.51.41-4.47,1.06-9.17,1.71-13.79,1.47-3.46.04-6.85-1.14-10.19-1.8-3.29-.41-6.75-.03-9.93.82-4.29,1.38-8.53,4-13.26,3.95-7.07.02-13.82-2.51-20.1-5.45-2.57-1.2-5.28-2.09-7.98-2.94-1.68-.35-3.21-1.08-4.77-1.78-2.84-1.32-5.94-2.17-8.71-3.72-.36-.26-.61-.74-.41-1.21.15-.37.42-.46.66-.55,1.48-.21,2.9.31,4.26.56,0,0-.16.99-.16.99h0Z" fill="#4b5a7e"/><path d="M234.02,275.99c11.32,7.5,22.85,15.4,36.38,18.14,8.97,1.88,18.16,1.5,27.27,1.15,4.58-.13,9.08-.55,13.63-1.14,6.87-.81,13.88-.85,20.72.26,6.75,1.44,13.47,2.29,20.36,2.82,9.03.82,18.42.99,27.06-2.08,12.51-5.7,24.52-12.75,37.83-16.59,4.46-1.25,9.03-2.03,13.52-2.96,4.16-.67,8.95-2.39,12.65-3.13.3.08.54-.47.96.9l.1.99c-.14,1.43-.47.95-.75,1.08-.85.1-1.7.08-2.57.03-8.06-.54-15.87,2.22-23.27,5.09-8.51,3.31-17.33,5.89-25.78,9.38-4.28,1.71-8.25,3.96-12.51,5.75-4.35,1.59-8.95,2.3-13.54,2.69-9.22.48-18.4-.25-27.54-1.52-4.53-.8-8.9-2.02-13.5-2.28-4.55-.33-9.13-.28-13.62.54-4.48.85-9.06,1.79-13.68,2-4.59.27-9.23.23-13.83-.21-18.11-2-37.41-6.66-50.54-20.14,0,0,.64-.77.64-.77h0Z" fill="#4b5a7e"/><path d="M259.42,296.24c6.19,1.2,12.05,3.55,18.21,4.86,6.1,1.41,12.31,2.43,18.58,2.59,6.34.35,12.51-1.14,18.8-1.67,6.33-.53,12.76-.79,19.04.39,12.17,2.72,25.1,4.27,37.12.16,5.9-2.07,11.41-5.42,17.39-7.43,6.01-2.16,12.24-3.43,18.37-5.01,0,0,.22.98.22.98-3.11.53-6.12,1.49-9.12,2.44-5.97,2.01-11.77,4.31-17.5,6.94-2.85,1.33-5.79,2.65-8.88,3.58-10.84,3.17-22.23,2.3-33.21.65-7.68-1.56-15.48-2.89-23.37-2.07-6.28.68-12.5,2.27-18.86,2.24-9.57.16-19.09-1.56-28.26-4.21-3.06-.87-6.06-1.97-8.87-3.51l.34-.94h0Z" fill="#4b5a7e"/><path d="M479.54,298.32c-2.26-.61-4.83-3.23-6.65-4.67-2.09-1.69-4.19-3.36-6.37-4.92-5.36-3.94-11.18-7.52-17.07-10.64-1.79-.95-5.4-2.69-7.23-3.53-2.15-.69-5.31-2.17-7.49-2.95-3.58-1.41-7.63-3.11-11.3-4.41-10.09-3.88-20.88-5.79-31.65-5.68-5.38.08-10.76.69-16,1.81-7.94,1.76-15.86,5.33-24.2,3.96-5.5-.66-10.97-2.59-15.45-5.89-4.37-3.21-8.14-7.09-13.38-8.72-2.44-.77-5.24-1.37-7.8-1.25-10.79.94-20.71,6.1-30.62,10.14-4.97,2.19-9.95,4.3-14.82,6.68-4.89,2.32-9.71,4.91-15.01,6.44-5.27,1.6-10.95,1.51-16.34.71-1.95-.2-3.97-.67-5.88-.47-.28.04-.41.18-.34.11,0-.09.02.11.21.32,1.39,1.46,4.61,3.49,6.38,4.72,4.49,3.07,8.92,6.21,13.15,9.69,3.96,3.65,8.27,6.85,13.14,9.16,4.79,2.38,9.94,4.04,15.1,5.68,14.16,4.42,24.35,8.7,39.29,4.16,8.11-1.82,16.57-.12,24.36,2.17,5.18,1.23,10.6,1.14,15.92.43,5.33-.72,10.65-1.83,15.68-3.68,5.04-1.85,9.72-4.6,14.36-7.4,9.34-5.56,18.6-11.2,28.04-16.62,4.79-2.55,9.76-5.17,15.37-6.06,11.05-1.54,22.23,1.95,31.49,7.82,0,0-.52.86-.52.86-9.08-5.33-20.12-8.69-30.57-6.55-5.18,1.22-10.03,3.45-14.82,5.78-9.73,4.72-19.26,9.96-28.49,15.62-4.66,2.76-9.35,5.61-14.48,7.57-5.13,1.95-10.49,3.15-15.89,3.95-5.39.79-11.01.97-16.43-.24-7.75-2.18-15.72-3.94-23.73-2.19-15.35,4.55-25.54.45-40.06-4.09-5.17-1.64-10.4-3.3-15.33-5.75-4.97-2.37-9.39-5.71-13.38-9.46-4.12-3.45-8.52-6.63-12.96-9.72,0,0-3.34-2.33-3.34-2.33-1.23-.95-2.76-1.76-3.62-3.28-.1-.23-.18-.59-.05-.94.75-1.95,5.91-.46,7.56-.39,5.31.83,10.72.99,15.91-.51,5.16-1.43,10-3.95,14.92-6.22,4.91-2.33,9.94-4.39,14.92-6.52,5-2.1,9.98-4.26,15.06-6.19,5.08-1.87,10.22-3.85,15.77-4.29,2.68-.22,5.63.29,8.22,1.02,8.02,2.18,13.18,9.6,21.01,12.08,4.97,1.68,10.36,2.56,15.56,1.86,2.61-.34,5.19-1.05,7.81-1.74,7.87-2.24,16.09-3.53,24.27-3.45,10.96-.12,21.72,2.25,32.27,4.99,5.27,1.45,10.61,2.76,15.61,4.99,2.3.97,5.18,2.48,7.44,3.5,7.3,3.6,14.53,7.9,21.06,12.76,2.22,1.61,4.36,3.32,6.48,5.05,2.05,1.83,4.51,3.4,5.59,6.04,0,0-.68.73-.68.73h0Z" fill="#4b5a7e"/></svg>