<?xml version="1.0" encoding="UTF-8"?><svg id="Layer_1" xmlns="http://www.w3.org/2000/svg" width="473.81" height="529.02" viewBox="0 0 473.81 529.02"><path d="M302.93,161.34c-6.65,3.82-13.25,7.73-19.67,11.93-10.65,6.98-21.18,14.59-31.11,22.54-91.53,73.18-146.76,182.26-157.82,298.4-1.12,11.55-1.85,23.16-2.26,34.78,1.5,0,2.99.02,4.49.03,8.36-132.27,59.43-244.17,164.58-334.36,13.46-11.65,27.59-22.49,42.04-32.93l-.25-.39Z" fill="#223b44"/><path d="M204.55,245.77c-24.93-10.29-46.58-29.83-56.46-55.2-8.03-20.41-7.4-42.78-7.58-64.39-.19-27.26,4.53-54.36,13.85-80,3.57-10.37,8.03-20.66,11.15-31.21.61-1.97,1.04-4.19,1.54-6.2.2-1.34.56-3.7.74-5.06,0-.04.02-.04-.05.08-.03.06-.09.17-.23.3-.13.15-.35.32-.67.44-.71.26-1.2,0-1.29-.03,2.36,2.42,3.88,5.65,5.62,8.67,1.29,2.38,2.53,4.82,3.75,7.27,9.65,19.7,18.1,40.02,26.03,60.5,12.6,31.51,23.26,60.76,21.58,95.34-.71,21.87-5.38,43.57-13.4,63.9l2.8,1.07c3.83-10.4,6.91-21.08,9.05-31.95,4.41-21.71,5.13-44.16,1.86-66.07-3.37-21.92-11.66-42.62-19.26-63.29-8.72-23.22-17.47-46.53-28.54-68.79-1.66-3.13-3.28-6.41-5.61-9.28-.48-.55-1.23-1.29-2.01-1.6-1.75-.8-3.82.34-4.19,2.43-.15.74-.38,2.43-.52,3.2l-.32,1.93c-.5,1.94-.92,3.9-1.53,5.79-2.3,7.45-5.74,15.71-8.57,23.03-6.6,16.77-11.78,34.26-14.32,52.17-1.82,12.24-2.39,25.08-2.31,37.43.42,22.1.16,45.02,8.67,65.84,10.53,26.12,33.16,46.2,59.05,56.48l1.13-2.77h.03Z" fill="#223b44"/><path d="M248.47,203.82c49.67,10.15,89.61-2.01,130.16-31.07,7.97-5.51,16.39-11.97,23.82-18.23,9.94-8.22,19.59-16.87,28.27-26.45,11.73-12.56,21.28-26.91,31.24-40.72,2.86-3.85,5.95-7.61,9.48-10.85,1.21-1.12,2.79-2.41,2.27-4.42-.66-2.34-3.5-2.87-5.5-3.22-4.41-.68-8.8-.69-13.19-.66-61.3,2.44-128.34,24.45-169.88,71.38-15.18,17.21-27.06,37.25-35.07,58.7l2.81,1.06c8.05-21.07,19.87-40.66,34.88-57.43,38-42.27,95.13-62.18,150.51-67.9,5.6-.52,11.22-.86,16.81-.91,4.68.04,9.52-.06,14.02,1.07l.29.1c.1.03.06.04.11.05-.5-.3-.74-1.04-.72-1.61.02-.35.12-.6.17-.71.12-.25.15-.23.13-.23l-.21.19c-4.09,3.66-7.75,7.87-11.02,12.25-10.11,13.69-19.4,27.87-31.02,40.27-11.38,12.32-24.22,23.63-38.09,33.12-13.83,9.66-27.22,20.14-42.07,28.21-29.49,16.45-64.42,21.34-97.61,15.05l-.59,2.94h0Z" fill="#223b44"/><path d="M165.25,294.59c20.11,28.77,53.92,48.76,89.2,35.81,21.39-7.6,40.5-20.43,59.8-32.11,35.51-22.04,64.84-45.19,79.23-86,.44-1.75,1.29-3.65.52-5.48-.99-1.76-2.98-1.13-4.11-.03-2.66,2.49-4.81,5.38-7.2,8-7.26,8.42-15.97,15.42-26.29,19.66-10.25,4.28-21.41,6.05-32.5,6.27-5.52.06-11.23-.53-16.8-.63-16.91-.55-33.81-.22-50.72-.04-16.84.34-34.48,1.71-49.79,9.55-15.37,7.79-27.33,21.18-35.48,36.16l2.64,1.42c5.15-9.81,11.81-18.92,20.19-26.2,21.9-19.68,51.64-18.86,79.34-18.97,11.26-.06,22.48-.08,33.72.4,5.68.13,11.19.75,16.93.73,23.81-.16,45.27-7.85,61.02-26.3,2.55-2.64,4.69-5.76,7.47-7.98-.42.17-1.08-.14-1.27-.54-.03-.04-.05-.08-.05-.13-.04-.15,0,.14-.04.37-.13.92-.4,1.83-.69,2.75-14.28,39.35-43.79,62.33-78.33,83.45-19.12,11.51-37.82,24.22-58.92,31.77-21.33,8.02-44.07,3.09-62.11-10.19-8.97-6.45-16.72-14.57-23.34-23.5l-2.43,1.76h0Z" fill="#223b44"/><path d="M171.7,289.59c14.45,4.44,29.87,5.12,44.81,3.29,3-.39,5.97-.87,8.97-1.31,5.89-1.32,11.59-3.76,16.75-6.86l-.2-.43c-5.66,1.88-11.43,3.01-17.21,4.28-11.38,3.1-23.45,3.43-35.16,2.42-5.86-.57-11.73-1.58-17.35-3.29l-.61,1.91h0Z" fill="#223b44"/><path d="M209.83,243.26c-8.75-20.11-18.17-39.93-23.29-61.37-4.97-21.44-6.83-43.65-5.07-65.63h-.03c-1.19,11-1.59,22.08-1.14,33.13.61,16.63,3.35,33.17,7.45,49.31,2.66,10.83,6.44,21.42,11.55,31.34,2.57,4.96,5.43,9.77,8.8,14.22l1.73-1h0Z" fill="#223b44"/><path d="M158.98,307.32c-16.5-3.51-32.31-10.18-46.36-19.52-4.72-3.06-8.98-6.77-13.12-10.55l-2.33-.14c.35-.49,1.58-.57,2.08-.09.05.04-.03-.03-.03-.04l-.29-.27c-.33-.3-1.37-1.36-1.72-1.7-11.75-11.39-22.04-24.21-31.04-37.89-4.77-7.29-9.37-14.89-13.26-22.68-1.92-3.91-3.53-7.97-4.78-12.13-1.16-4.2-2.1-8.65-3.69-12.74-4.54-12.58-12.13-23.91-21.32-33.54-5.24-6.09-11.43-12.01-16.56-18.19-.06-.09-.11-.17-.14-.23,0,0,0-.04.03.07.02.1.03.14.02.3.02.58-.77,1.14-1.24.99l.19.03.46.08c16.39,1.44,33.04,1.91,49.18,5.22,3.51.69,7.54,1.69,10.89,2.94,5.51,2.16,10.81,5.13,15.97,7.99,7.33,4.3,14.97,9.18,21.27,14.82,3.06,2.91,5.74,6.34,8.3,9.81,7.61,10.52,15.02,21.32,21.14,32.84,5.96,11.13,13.04,23.5,17.74,35.09,6.5,16.1,10,33.41,11.17,50.74l3-.12c-.23-27.15-7.76-52.97-20.81-76.64-10.18-19.65-20.65-40.17-37.66-54.89-11.15-9.2-24.1-16.57-37.34-22.27-7.3-2.81-15.25-3.99-22.96-4.99-10.93-1.36-22.07-1.9-33.03-2.48-1.96-.11-5.09-.24-7-.54-.09-.03-.2-.04-.37-.04-.16.01-.4-.01-.77.22-.4.27-.54.61-.6,1.01-.01.28.04.56.14.76.96,1.77,2.47,3.07,3.77,4.54l4.57,4.78c3.05,3.18,6.05,6.36,9,9.63,9.15,9.43,16.5,20.42,21.03,32.79,1.62,4.13,2.49,8.32,3.69,12.61,2.49,8.56,6.68,16.48,10.95,24.24,8.51,15.54,18.34,30.47,30.15,43.73,2.78,3.12,5.7,6.22,8.97,8.84l.33.28c.26.22.49.38.89.53.65.24,1.43.08,1.78-.11l-2.33-.14c4.52,3.57,9.37,6.67,14.13,9.86,9.59,6.28,19.95,11.37,30.73,15.25,5.4,1.91,10.89,3.6,16.48,4.9l.66-2.92h0Z" fill="#223b44"/><path d="M158.7,305.22c-3.2-14.77-10.16-28.55-19.08-40.68-1.8-2.42-3.69-4.77-5.54-7.18-4.03-4.48-8.95-8.27-14.19-11.23l-.27.38c2.18,2.06,4.29,4.14,6.29,6.32,2.05,2.13,3.86,4.46,5.87,6.6,8.26,8.41,14.48,18.77,19.33,29.47,2.37,5.38,4.36,11,5.62,16.74l1.96-.4h0Z" fill="#223b44"/><path d="M148.59,324.24c-.19-1.18-1.64-1.88-2.22-2.14-32.07-14.75-40.47-16.12-40.47-16.12-7.64-1.24-25.85-3.48-44.76,1.54-2.61.7-4.65,1.36-6.03,1.81-6.51,2.14-17.6,5.95-27.98,14.49-2.59,2.13-4.35,3.97-7.86,7.63-7.44,7.77-20.08,22.39-18.06,24.7,1.31,1.49,6.7-4.35,19.31-6.85,6.38-1.27,12.9-1.36,16.63-1.37,12.99-.02,21.6,1.57,28.85,2.64,22.54,3.35,42.7-2.05,42.7-2.05,12.53-3.69,10.31-6.38,33.05-18.14,1.9-.98,7.22-3.7,6.83-6.15h0Z" fill="none" stroke="#223b44" stroke-miterlimit="10" stroke-width="2"/></svg>