<?xml version="1.0" encoding="UTF-8"?><svg id="Layer_1" xmlns="http://www.w3.org/2000/svg" width="570.89" height="411.29" viewBox="0 0 570.89 411.29"><path d="M378.77,209.99c-7.66-.36-15.33-.61-23-.52-12.74.16-25.7.91-38.35,2.27-116.52,12.45-221.77,74.68-293.57,166.63-8.33,10.63-16.28,21.6-23.86,32.81,1.75.04,3.51.09,5.26.13,78.42-108.4,182.18-176.1,320.36-195.69,17.62-2.58,35.35-4.11,53.15-5.14v-.47Z" fill="#223b44"/><path d="M250.42,228.23c-15.48-22.08-23.22-50.21-17.9-76.9,4.21-21.52,16.78-40.04,28.25-58.35,14.51-23.08,33.07-43.38,54.72-59.98,8.59-6.82,17.88-13.09,26.19-20.31,1.57-1.33,3.13-2.97,4.64-4.4.89-1.02,2.46-2.82,3.34-3.87.02-.03.04-.03-.08.05-.06.03-.17.09-.35.13-.19.05-.47.08-.8,0-.74-.16-1.02-.64-1.07-.73.68,3.31.23,6.85.07,10.33-.19,2.7-.46,5.42-.75,8.14-2.46,21.8-6.28,43.47-10.6,65-6.33,33.34-13.08,63.73-33.1,91.97-12.36,18.05-27.97,33.84-45.67,46.65l1.78,2.41c8.82-6.71,17.17-14.05,24.81-22.06,15.39-15.93,28.08-34.46,37.12-54.7,8.95-20.3,13.1-42.2,17.81-63.72,5.14-24.27,10.31-48.62,12.95-73.34.28-3.53.69-7.17.27-10.84-.11-.72-.34-1.75-.83-2.43-1.05-1.61-3.41-1.77-4.84-.21-.52.55-1.63,1.84-2.16,2.42l-1.31,1.46c-1.47,1.36-2.87,2.79-4.4,4.05-5.95,5.05-13.29,10.16-19.61,14.8-14.59,10.59-28.36,22.54-40.13,36.27-8.12,9.34-15.51,19.86-22.08,30.31-11.54,18.85-24.09,38.04-28.11,60.17-5.17,27.68,3.1,56.78,19.39,79.38l2.45-1.73h.03Z" fill="#223b44"/><path d="M310.01,216.49c36.41,35.28,76.62,46.51,126.43,43.84,9.69-.35,20.25-1.28,29.89-2.56,12.8-1.58,25.59-3.69,38.06-7.09,16.64-4.28,32.41-11.23,48.24-17.52,4.48-1.7,9.11-3.22,13.83-4.05,1.62-.3,3.64-.53,4.29-2.5.7-2.33-1.41-4.3-2.91-5.67-3.35-2.94-7.05-5.32-10.77-7.65-52.99-30.92-121.34-48.44-181.6-31.22-22.06,6.34-42.85,16.85-61.14,30.61l1.79,2.41c18.12-13.43,38.63-23.59,60.3-29.64,54.78-15.19,113.64-1.23,163.4,23.74,5,2.57,9.92,5.31,14.65,8.28,3.92,2.55,8.06,5.07,11.24,8.45l.18.24c.06.08.03.07.07.1-.26-.52-.06-1.28.26-1.74.2-.29.42-.44.52-.51.24-.14.25-.12.23-.12l-.28.05c-5.42.88-10.77,2.46-15.88,4.4-15.88,6.1-31.35,13.06-47.81,17.25-16.23,4.26-33.13,6.89-49.93,7.43-16.85.7-33.78,2.34-50.64,1.15-33.71-2-65.78-16.67-90.37-39.83l-2.08,2.16h0Z" fill="#223b44"/><path d="M191.03,248.24c1.48,35.07,19.21,70.11,55.92,78.18,22.12,5.1,45.13,4.56,67.68,5.11,41.79.53,78.97-3.21,113.05-29.87,1.32-1.24,3.05-2.38,3.39-4.34.11-2.01-1.9-2.56-3.45-2.24-3.58.67-6.95,1.95-10.37,2.87-10.65,3.19-21.76,4.4-32.73,2.43-10.95-1.9-21.3-6.42-30.77-12.2-4.69-2.92-9.18-6.49-13.83-9.57-13.96-9.56-28.38-18.37-42.73-27.32-14.38-8.77-29.99-17.11-47.11-18.73-17.14-1.71-34.43,3.15-49.36,11.39l1.47,2.62c9.61-5.5,20.13-9.59,31.12-11.22,29.05-4.8,53.68,11.88,77.09,26.69,9.52,6,18.99,12.02,28.21,18.47,4.72,3.17,9.03,6.66,13.87,9.72,20.16,12.67,42.38,17.74,65.59,10.66,3.57-.85,7.05-2.33,10.59-2.71-.44-.08-.83-.7-.78-1.14,0-.05,0-.09.03-.14.04-.15-.07.12-.23.29-.61.71-1.32,1.33-2.06,1.95-33.21,25.49-70.44,28.99-110.92,28.21-22.31-.59-44.91.07-66.76-4.92-22.29-4.72-38.81-21.11-46.87-42.01-4.09-10.27-6.25-21.28-7.03-32.37l-2.99.18h0Z" fill="#223b44"/><path d="M199.15,247.49c9.79,11.52,22.42,20.39,36,26.88,2.73,1.29,5.5,2.47,8.27,3.72,5.67,2.06,11.79,3.06,17.81,3.22l.06-.47c-5.78-1.46-11.26-3.62-16.81-5.65-11.26-3.51-21.61-9.72-30.94-16.88-4.63-3.63-9.04-7.64-12.85-12.11l-1.54,1.28h0Z" fill="#223b44"/><path d="M256.22,228.95c3.44-21.66,6.17-43.44,13.38-64.26,7.35-20.75,17.73-40.47,31.03-58.05l-.02-.02c-6.92,8.63-13.21,17.76-18.78,27.32-8.43,14.35-15.02,29.76-20.25,45.58-3.59,10.56-6.09,21.52-7.13,32.64-.5,5.56-.68,11.16-.24,16.72l2,.09h0Z" fill="#223b44"/><path d="M178.89,255.59c-12.02-11.84-21.76-25.96-28.57-41.4-2.33-5.12-3.92-10.54-5.38-15.95l-1.89-1.37c.56-.23,1.64.37,1.8,1.04.02.06,0-.04,0-.05l-.1-.39c-.12-.43-.42-1.89-.54-2.35-3.78-15.93-5.55-32.27-5.78-48.63-.1-8.71.11-17.6,1.03-26.25.49-4.33,1.31-8.62,2.49-12.79,1.28-4.16,2.89-8.42,3.74-12.73,2.94-13.05,2.64-26.68.08-39.74-1.13-7.95-3.18-16.28-4.17-24.24,0-.11,0-.2,0-.26,0,0,.01-.03-.02.07-.03.1-.05.13-.15.26-.3.5-1.26.55-1.58.17l.14.13.35.31c13.04,10.03,26.82,19.39,38.65,30.86,2.59,2.47,5.44,5.48,7.6,8.34,3.48,4.78,6.35,10.14,9.16,15.32,3.87,7.56,7.68,15.79,9.96,23.94,1.01,4.1,1.43,8.43,1.72,12.73.76,12.96,1.19,26.05.16,39.05-.96,12.59-1.65,26.82-3.92,39.12-3.18,17.07-9.55,33.54-17.88,48.78l2.59,1.51c14.41-23,21.95-48.83,23.69-75.8,1.99-22.04,4.21-44.97-2.22-66.53-4.45-13.76-11.41-26.93-19.5-38.86-4.64-6.29-10.71-11.57-16.67-16.55-8.48-7.03-17.58-13.48-26.51-19.86-1.59-1.14-4.16-2.94-5.61-4.22-.06-.07-.15-.14-.28-.23-.15-.08-.33-.23-.77-.23-.48.01-.78.23-1.04.53-.16.23-.27.49-.29.71-.14,2.01.43,3.91.73,5.85l1.28,6.49c.86,4.32,1.68,8.62,2.41,12.96,2.64,12.88,2.92,26.09.09,38.95-.86,4.35-2.38,8.35-3.67,12.62-2.51,8.55-3.24,17.49-3.81,26.33-1.19,17.68-.94,35.55,1.89,53.08.66,4.13,1.46,8.31,2.81,12.28l.13.41c.1.33.21.58.47.92.42.56,1.16.83,1.56.86l-1.89-1.37c1.89,5.44,4.31,10.66,6.61,15.92,4.71,10.45,10.7,20.31,17.7,29.39,3.53,4.52,7.24,8.89,11.25,13l2.13-2.11h0Z" fill="#223b44"/><path d="M179.79,253.67c5.24-14.17,6.8-29.53,5.8-44.56-.21-3.01-.54-6.01-.81-9.04-.99-5.95-3.1-11.78-5.92-17.1l-.44.18c.73,2.91,1.39,5.8,1.91,8.71.58,2.89.85,5.83,1.4,8.72,2.44,11.53,2.11,23.61.44,35.24-.9,5.81-2.24,11.62-4.27,17.14l1.87.72h0Z" fill="#223b44"/><path d="M161.03,264.27c.48-1.1-.37-2.46-.72-3-19.1-29.69-25.44-35.36-25.44-35.36-5.77-5.16-19.92-16.84-38.56-22.78-2.58-.82-4.65-1.36-6.06-1.72-6.63-1.7-18.03-4.45-31.39-2.84-3.33.4-5.8,1-10.73,2.2-10.45,2.55-28.97,8.07-28.51,11.11.3,1.96,7.99-.06,19.96,4.61,6.06,2.37,11.61,5.8,14.75,7.79,10.96,6.97,17.36,12.94,22.9,17.74,17.2,14.95,37.1,21.25,37.1,21.25,12.55,3.63,12.12.16,37.62,2.49,2.13.19,8.07.76,9.06-1.51h0Z" fill="none" stroke="#223b44" stroke-miterlimit="10" stroke-width="2"/></svg>