<?xml version="1.0" encoding="UTF-8"?><svg id="Layer_1" xmlns="http://www.w3.org/2000/svg" width="623.72" height="386.89" viewBox="0 0 623.72 386.89"><path d="M621.44,386.89c-102.51-114.99-226.19-175.99-381.58-170.83-17.8.51-35.53,2.07-53.24,4.14,0,0-.08-.46-.08-.46,7.48-1.68,14.99-3.26,22.56-4.5,12.57-2.05,25.47-3.56,38.16-4.41,116.92-7.92,231.35,35.14,317.99,113.27,20.92,18.8,40.57,39.17,58.47,60.83,0,0-2.28,1.95-2.28,1.95h0Z" fill="#223b44"/><path d="M316.11,215.48c11.42-24.43,14.17-53.47,4.31-78.84-7.87-20.47-23.46-36.53-37.93-52.58-18.29-20.22-40.08-37-64.28-49.6-9.64-5.23-19.88-9.8-29.31-15.47-1.78-1.04-3.6-2.38-5.33-3.53-1.05-.85-2.91-2.35-3.96-3.23-.03-.03-.04-.02.09.03.06.02.18.06.37.07.2.02.48,0,.79-.13.7-.29.89-.81.93-.9-.1,3.38.96,6.79,1.72,10.19.66,2.63,1.39,5.26,2.15,7.89,6.2,21.04,13.71,41.73,21.7,62.18,12.01,31.74,23.92,60.5,48.53,84.85,15.3,15.64,33.41,28.48,53.06,38.04,0,0-1.34,2.68-1.34,2.68-9.85-5.08-19.34-10.86-28.26-17.43-17.92-13.02-33.62-29.08-46.03-47.44-12.33-18.44-20.21-39.29-28.58-59.67-9.27-23.01-18.57-46.1-25.46-69.99-.89-3.43-1.92-6.94-2.14-10.63-.02-.73.03-1.78.4-2.54.75-1.77,3.05-2.33,4.73-1.04.61.45,1.92,1.53,2.55,2.01,0,0,1.54,1.21,1.54,1.21,1.68,1.09,3.31,2.25,5.04,3.23,6.73,3.94,14.85,7.7,21.88,11.18,16.2,7.9,31.84,17.29,45.81,28.77,9.61,7.79,18.71,16.87,27,26.03,14.63,16.57,30.31,33.29,38.11,54.39,9.89,26.37,6.78,56.46-5.35,81.54,0,0-2.71-1.28-2.71-1.28h0Z" fill="#223b44"/><path d="M255.39,214.24c-29.75,41.05-67.41,59.08-116.93,65.07-9.6,1.33-20.17,2.25-29.88,2.66-12.88.66-25.84.8-38.71-.39-17.13-1.33-33.87-5.45-50.55-8.9-4.71-.9-9.53-1.59-14.32-1.59-1.65-.01-3.68.11-4.66-1.72-1.09-2.17.64-4.48,1.88-6.09,2.79-3.48,6.02-6.46,9.28-9.4,46.83-39.63,111.12-68.72,173.45-62.2,22.82,2.42,45.12,9.17,65.52,19.56l-1.35,2.68c-20.17-10.09-42.13-16.54-64.52-18.75-56.58-5.47-112.14,18.47-156.82,51.68-4.48,3.4-8.85,6.95-13,10.69-3.42,3.19-7.06,6.39-9.61,10.27,0,0-.14.27-.14.27-.05.09-.02.07-.05.11.17-.56-.16-1.27-.56-1.67-.25-.25-.49-.36-.6-.41-.26-.1-.27-.07-.25-.08,0,0,.28,0,.28,0,5.49-.07,11.03.56,16.4,1.58,16.7,3.26,33.14,7.43,50.08,8.71,16.72,1.39,33.82,1.05,50.46-1.33,16.72-2.23,33.67-3.55,50.07-7.64,32.85-7.81,61.9-27.81,82.11-54.88,0,0,2.42,1.77,2.42,1.77h0Z" fill="#223b44"/><path d="M378.07,224.9c4.62,34.8-6.78,72.38-41.54,86.68-20.9,8.85-43.66,12.31-65.77,16.75-41.07,7.76-78.33,10.52-116.52-9.84-1.51-.99-3.42-1.82-4.09-3.69-.46-1.96,1.43-2.85,3.01-2.8,3.64.04,7.18.72,10.71,1.03,11.04,1.3,22.19.57,32.66-3.28,10.45-3.77,19.87-10.01,28.19-17.34,4.11-3.69,7.92-7.98,11.96-11.82,12.09-11.83,24.77-23.01,37.35-34.31,12.64-11.13,26.57-22.04,43.15-26.61,16.59-4.65,34.46-2.86,50.59,2.67,0,0-.99,2.83-.99,2.83-10.42-3.75-21.49-5.96-32.59-5.66-29.44.3-50.81,21-71.3,39.64-8.34,7.56-16.62,15.13-24.58,23.08-4.1,3.94-7.74,8.12-11.98,11.98-17.66,15.97-38.67,24.81-62.75,21.86-3.66-.22-7.35-1.07-10.9-.83.42-.16.7-.83.57-1.26,0-.05-.02-.09-.05-.13-.07-.14.09.11.28.25.72.59,1.53,1.08,2.37,1.56,37.12,19.35,74.4,16.35,114.13,8.57,21.87-4.44,44.24-7.71,64.9-16.41,21.14-8.51,34.57-27.51,38.89-49.49,2.25-10.82,2.47-22.04,1.32-33.1l2.98-.34h0Z" fill="#223b44"/><path d="M369.94,225.57c-7.65,13.04-18.55,23.96-30.8,32.71-2.47,1.74-4.99,3.39-7.5,5.1-5.23,3.01-11.08,5.06-16.98,6.26,0,0-.14-.45-.14-.45,5.44-2.44,10.46-5.51,15.58-8.48,10.48-5.41,19.6-13.32,27.55-21.98,3.93-4.38,7.58-9.09,10.56-14.15,0,0,1.74.99,1.74.99h0Z" fill="#223b44"/><path d="M310.52,217.19c-7.14-20.74-13.6-41.71-24.31-60.97-10.83-19.16-24.47-36.79-40.62-51.8,0,0,.02-.02.02-.02,8.31,7.3,16.09,15.2,23.23,23.65,10.79,12.67,19.95,26.71,27.84,41.38,5.36,9.78,9.73,20.14,12.67,30.91,1.46,5.39,2.6,10.87,3.13,16.43,0,0-1.95.43-1.95.43h0Z" fill="#223b44"/><path d="M391.3,230.04c9.79-13.74,16.93-29.34,20.97-45.72,1.41-5.45,2.04-11.06,2.54-16.64l1.62-1.68c-.59-.13-1.55.65-1.59,1.34-.01.06,0-.04,0-.05l.03-.4c.04-.44.09-1.93.12-2.41.96-16.34-.12-32.74-2.73-48.9-1.41-8.6-3.16-17.31-5.56-25.68-1.23-4.18-2.78-8.26-4.67-12.17-1.98-3.88-4.3-7.79-5.89-11.89-5.16-12.34-7.22-25.82-6.96-39.13-.26-8.03.31-16.58-.09-24.6-.02-.11-.03-.2-.05-.26,0,.01-.02-.03.03.07.05.09.07.12.19.23.38.44,1.34.32,1.58-.11,0,0-.12.15-.12.15,0,0-.29.37-.29.37-11.11,12.14-23.06,23.74-32.72,37.09-2.12,2.88-4.41,6.34-6.04,9.53-2.6,5.31-4.5,11.09-6.37,16.68-2.5,8.12-4.83,16.88-5.66,25.3-.29,4.21.05,8.55.51,12.84,1.5,12.9,3.34,25.86,6.61,38.49,3.13,12.23,6.27,26.13,10.64,37.85,6.09,16.26,15.21,31.38,26.06,44.95,0,0-2.29,1.94-2.29,1.94-18.18-20.16-30.08-44.29-36.46-70.55-5.78-21.36-11.93-43.56-9.34-65.91,2-14.32,6.57-28.5,12.47-41.65,3.48-7,8.54-13.25,13.55-19.19,7.13-8.39,14.98-16.32,22.67-24.15,1.37-1.4,3.59-3.62,4.79-5.13.05-.08.12-.16.24-.28.13-.1.29-.28.72-.36.48-.07.81.09,1.12.34.2.2.35.44.41.65.49,1.95.25,3.93.29,5.89,0,0-.14,6.61-.14,6.61-.1,4.4-.16,8.78-.13,13.18-.37,13.14,1.64,26.2,6.66,38.38,1.6,4.14,3.79,7.81,5.8,11.79,3.95,7.99,6.22,16.66,8.31,25.27,4.23,17.21,7.08,34.85,7.33,52.61.06,4.18,0,8.44-.64,12.58,0,0-.06.43-.06.43-.04.34-.11.61-.3.99-.32.62-1,1.02-1.39,1.12,0,0,1.62-1.68,1.62-1.68-.92,5.69-2.4,11.25-3.75,16.82-2.83,11.11-7.02,21.86-12.34,32.01-2.69,5.06-5.59,10.01-8.83,14.75,0,0-2.46-1.71-2.46-1.71h0Z" fill="#223b44"/><path d="M390.08,228.3c-7.62-13.05-11.81-27.91-13.43-42.88-.31-3-.51-6.01-.77-9.04-.06-6.03,1.01-12.14,2.87-17.87,0,0,.46.1.46.1-.22,2.99-.37,5.95-.37,8.91-.07,2.95.17,5.89.13,8.83-.41,11.78,2.01,23.62,5.67,34.78,1.89,5.57,4.22,11.06,7.17,16.14,0,0-1.72,1.03-1.72,1.03h0Z" fill="#223b44"/><path d="M410.39,235.49c-.66-1-.06-2.49.19-3.08,13.67-32.55,18.93-39.23,18.93-39.23,4.79-6.08,16.7-20.04,34.03-29.11,2.4-1.25,4.34-2.14,5.67-2.74,6.24-2.82,16.99-7.51,30.42-8.23,3.35-.18,5.89-.02,10.95.31,10.73.7,29.93,2.93,30,6,.04,1.98-7.88,1.32-18.86,8-5.56,3.38-10.43,7.72-13.18,10.23-9.59,8.76-14.86,15.75-19.48,21.44-14.35,17.7-32.86,27.35-32.86,27.35-11.73,5.75-11.91,2.26-36.62,8.97-2.06.56-7.82,2.15-9.19.08Z" fill="none" stroke="#223b44" stroke-miterlimit="10" stroke-width="2"/></svg>